<?xml version="1.0" encoding="utf-8"?>
<!-- Generator: Adobe Illustrator 22.1.0, SVG Export Plug-In . SVG Version: 6.00 Build 0)  -->
<svg version="1.1" id="Layer_1" xmlns="http://www.w3.org/2000/svg" xmlns:xlink="http://www.w3.org/1999/xlink" x="0px" y="0px"
	 viewBox="0 0 441.5 441.5" enable-background="new 0 0 441.5 441.5" xml:space="preserve">
<path fill="#F50915" d="M220.8,441.5C98.3,441.5-0.1,342.9,0,220.2C0.1,96.8,102.1-2.4,225.3,0c120,2.4,218.8,102,216.3,225.4
	C439.1,345,340.9,442.1,220.8,441.5z M297.5,113.2c0-19.5,0-38.3,0-57.7c-13.5,0-26.7-0.3-39.9,0.1c-10.8,0.3-21.9,0.3-32.5,2.2
	c-22.4,4.1-38.6,16.5-45,39c-2,6.9-2.6,14.4-2.8,21.6c-0.4,15.3-0.1,30.6-0.1,46.8c-11.3,0-22.2,0-33.2,0c0,18.8,0,36.7,0,55.3
	c11.1,0,21.9,0,33.3,0c0,55.5,0,110.3,0,165.3c22.9,0,45.1,0,68.1,0c0-55.1,0-110,0-165.4c2.6,0,4.5,0,6.5,0
	c11.8,0,23.6-0.1,35.3,0.1c3.4,0.1,4.7-0.9,5-4.4c0.7-7.1,2-14.1,2.8-21.2c1.1-9.8,1.9-19.7,2.9-30.2c-17.8,0-34.7,0-52.1,0
	c0-11.8,0-23,0-34.2c0-11.3,6.1-17.4,17.6-17.4C274.5,113.2,285.8,113.2,297.5,113.2z"/>
</svg>
