<?xml version="1.0" encoding="utf-8"?>
<!-- Generator: Adobe Illustrator 22.1.0, SVG Export Plug-In . SVG Version: 6.00 Build 0)  -->
<svg version="1.1" id="Layer_1" xmlns="http://www.w3.org/2000/svg" xmlns:xlink="http://www.w3.org/1999/xlink" x="0px" y="0px"
	 viewBox="0 0 441.5 441.5" enable-background="new 0 0 441.5 441.5" xml:space="preserve">
<g>
	<path fill="#F50915" d="M437.9,182.8C425.6,116.6,390.4,66,333.1,31C295.8,8.3,254.9-1.8,211.3,0.3C148.9,3.3,96.6,28.5,55,75.2
		C23.7,110.3,5.3,151.7,1.1,198.6c-6.4,69.8,15.5,130,65.1,179.6c33.1,33,73.3,52.9,119.4,60.6c7.3,1.2,14.8,1.9,22.2,2.8
		c8.6,0,17.2,0,25.9,0c8.4-1.1,16.8-2,25.1-3.4c50.1-8.9,92.2-32.4,126.2-70.1c32-35.5,50.2-77.4,55.5-124.9
		c0.3-3.1,0.7-6.2,1.1-9.3c0-8.6,0-17.2,0-25.9C440.3,199.5,439.5,191,437.9,182.8z M346.2,296.5c-0.1,24.6-15.5,43.8-38.8,48.7
		c-3.9,0.8-8,1.1-12,1.1c-49.9,0.1-99.7,0.1-149.6,0c-25.4,0-44.8-15.4-49.7-39.2c-0.8-3.9-1-8-1-12c-0.1-49.7-0.1-99.4,0-149.1
		c0-25.4,15.3-44.9,39-49.8c4.2-0.9,8.6-1.1,12.8-1.1c24.6-0.1,49.1,0,73.7,0c25,0,50-0.1,75,0c25.2,0.1,44.5,15.3,49.5,38.9
		c0.7,3.5,1.1,7.1,1.1,10.7C346.2,195.4,346.3,245.9,346.2,296.5z"/>
	<path fill="#F50915" d="M321.4,195.2c-12.4,0-24.5,0-36.7,0c10.1,33.2,3,61.1-25.2,81.9c-22.2,16.4-53.4,16.9-76.5,0.8
		c-29.5-20.5-36.8-49-26.5-83c-11.4,0-22.7,0-34,0c-0.8,0-1.7,0.1-2.9,0.3c0,1.6,0,3,0,4.4c0,31.9,0,63.8,0,95.7
		c0,16.8,9.7,26.4,26.5,26.4c49.6,0,99.2,0,148.8,0c17.1,0,26.8-9.6,26.8-26.6c0-31.9,0-63.8,0-95.7
		C321.6,198.1,321.5,196.7,321.4,195.2z"/>
	<path fill="#F50915" d="M220.5,264.9c24.1,0.1,44.2-19.7,44.2-43.5c0.1-24.8-19.4-44.6-43.9-44.7c-24.5-0.1-44.2,19.7-44.3,44.4
		C176.5,244.9,196.3,264.7,220.5,264.9z"/>
	<path fill="#F50915" d="M316.9,124.4c-14.2,0-28,0-41.9,0c0,14.2,0,28.2,0,42c14.2,0,27.9,0,41.9,0
		C316.9,152.3,316.9,138.6,316.9,124.4z"/>
</g>
</svg>
