<svg xmlns="http://www.w3.org/2000/svg" viewBox="0 0 713 237.06"><defs><style>.cls-1{fill:#fffdfc;}.cls-2{fill:#f50915;}.cls-3{fill:#0f2d40;}.cls-4,.cls-7{fill:#121729;}.cls-4{stroke:#0f2d40;stroke-miterlimit:10;}.cls-5{fill:#99aab0;}.cls-6{fill:#eef5f1;}</style></defs><title>logo</title><g id="Layer_2" data-name="Layer 2"><g id="desktop"><g id="logo"><path class="cls-1" d="M608.8,222.91c-2.73-2.2-14.5,2.8-17.26.54C595.84,227.06,607.79,222.08,608.8,222.91Zm-20.43.91a31,31,0,0,1-10.32,1.82,85.62,85.62,0,0,0-9.78.39,14.32,14.32,0,0,1,4.39-1.38,39.79,39.79,0,0,1,5.28-.49C581.61,224,585.41,224.15,588.37,223.82Zm-21.31,1.51a29.92,29.92,0,0,1-6.53,1.35c-1.37.17-2.87.33-4.46.49l-5.14.53c1-1,3.92-1.74,7-2.16,1.6-.2,3.23-.33,4.78-.37A30.89,30.89,0,0,1,567.06,225.33Zm-33.19.45c7.12-2.25,16.86-3.27,25.9-4,4.47-.38,9-.66,13.17-1s8.06-.77,11.26-1.33c-4,.94-8.25,1.68-12.51,2.31s-8.56,1.07-12.8,1.5C550.31,224.09,541.48,224.75,533.87,225.78Zm-356.3-46.91c-.47-.71-1.3-.24-2-.18-.69-1.76,3.67-1.64,5-2.64-.38,1.34-1.46,2.29,1.38,2.2-3,1.2-7.61,4.44-13.09,6.36-1.45,1.24-4.23.25-1.25-.45,2.09-1.25,5.35-3.91,7.31-3.48A3.82,3.82,0,0,1,177.57,178.87Zm16.85-7.43a4.94,4.94,0,0,0,3.47-.17c1.19-.36,2.43-.91,3.59-1.14,1.06.08-.43,1.16-2.3,1.83S194.89,173,194.42,171.44ZM517.7,216.16a58.29,58.29,0,0,1,14.5-2,144.87,144.87,0,0,0,15.33-.8c-3.61,2.88-8,3.15-13.12,2.9-2.49-.12-5.21-.38-7.95-.48-1.4-.06-2.85-.09-4.29,0A41.49,41.49,0,0,0,517.7,216.16ZM145.18,178c2.85,4.32-6.84,4.67-4.81,7.22-2.73.74-4.86-.78-7.92,1.22C136,183.13,141,181.89,145.18,178Zm105-21.63a2.67,2.67,0,0,1,1.85-1.13,3.75,3.75,0,0,1,1,0l.52.12.55.19c.74.28,1.51.61,2.32.83a6.48,6.48,0,0,0,2.77.28c-.23.41-.76.58-1.48.59a7.27,7.27,0,0,1-1.19-.08c-.43-.06-.86-.1-1.32-.18A24.57,24.57,0,0,0,250.16,156.34Zm255.57,56.92c-1.36-.65-1.78-.63-2.33-.44a7,7,0,0,1-3.09.49c-.25-.68.53-.75,1.37-.8-.05-.78-1.69-.62-2.75-.8-1.15-1,.4-.82,2.49-.63s4.62.42,5.56-.25A3,3,0,0,0,505.73,213.26Zm-345.82-38c-1.18-2.58,6-4.17,8.19-3.8C167.69,175.35,162.8,173.89,159.91,175.29ZM229.85,152c-.15,1.41-.61,1.09-1.24.56s-1.35-1.32-1.9-.95c-.54-1.69,1.72-.65,2.31-1.15C229.15,151.41,229.45,151.87,229.85,152Zm280.81,53.9a31.45,31.45,0,0,0,3.18.53c1.1.13,2.24.22,3.42.29,2.38.15,4.77.17,7.16.23a11.57,11.57,0,0,1-2.75,1.08c-.65.19-1.35.36-2.11.51s-1.55.24-2.34.3C514.1,209.09,511,208.48,510.66,205.91ZM392.81,189.06c-.09.45-.69.52-1.57.39-.45-.07-1-.19-1.51-.33l-1.69-.49c-2.36-.73-4.67-1.5-5.6-1.09-.39.73.78.92,1.38,1.32-3.24.49-4.19-1-7.06-2.25a22.07,22.07,0,0,1,4.21-.92,10.12,10.12,0,0,1,3.31.18,21.65,21.65,0,0,1,3.53,1.15l2.21.91ZM562.62,201.4c1.16,2.09-1.73,1.81-1.46,3.4-3.68.9-4.23-1.33-7.54-.88C555.72,202.51,559.2,202,562.62,201.4ZM334,173c1.54-2.25,5.07.13,7.84.74C340.71,176.82,336.58,173.08,334,173ZM182.46,161.26c.54.78-.06,1.08-.9,1.27a7.29,7.29,0,0,0-2.4.71c-.25-.92.2-2.31,1.07-1.24,1-.72-.76-2.53,2.08-2.45C182.3,160.38,180.92,161.33,182.46,161.26ZM472.21,205.1c-4.57.49-10.12-.48-15.72-1.8s-11.19-3-16.45-4c2.87-.27,10,.55,17,1.62,3.51.52,7,1.16,9.68,1.83a26.08,26.08,0,0,1,3.52,1.1A5.19,5.19,0,0,1,472.21,205.1ZM349.28,175.22c1.08-2.7,5,1.08,6.52-.56C357.55,177.18,351.22,175.52,349.28,175.22ZM524.1,203.75c-.55.94-2.44,1.12-4.59,1.14a43,43,0,0,0-6.35.14,10.82,10.82,0,0,1,5.64-1.56A41.48,41.48,0,0,1,524.1,203.75ZM248.29,147.31c.66-1.8,2.35-1.5,4-1.32A3.78,3.78,0,0,1,248.29,147.31ZM695.7,166.79c-.44-.62.1-.81.68-1-.32-.75-1.44-.35-2.26-.36.22-3,3.13-.92,5.28-2.79C698.66,164.25,698.57,166.13,695.7,166.79Zm-611.6,7c-1.29,2.38-8,2.25-11,1.88C74.4,173.35,80.92,174.3,84.1,173.79Zm593.1-19.91c1.84-2.94,6.95-.51,10.6-2.17-.42,1.57-2.22,2.15-4.34,2.31S678.9,153.92,677.2,153.88ZM708,118.55c1.27-1.72,2.15-3.59,5-4.6C712.21,115.86,711.33,117.74,708,118.55Zm-26-5c.72-2.33,4.8.58,7.54-.82C688.77,115.17,683.92,113.51,682,113.54Zm5-9.5c2-2.8,8.45-3.48,8.66-7.07C697.8,100.25,691.77,103.13,687,104ZM41.43,122.28c-3.53,1.45-3.12-4.55-4.84-6.3C39.73,116.25,38.18,120.11,41.43,122.28ZM672.29,93.84c.31-3.26,9.44-6.17,13.08-2.93C681.7,93.13,676.92,93.49,672.29,93.84ZM37.75,114.57c-3.14,1.06.15-3.51-3-2.45-1.11-2.09,2.67-1.16,2.78.69C43.05,110.87,37.75,113.2,37.75,114.57ZM653.08,87.8c6.28-.41,8.42-3.22,15.86-2.46-1.63,1.57-4.88,2.91-8.07,3.5S654.5,89.23,653.08,87.8ZM25.23,96.69c-2.4,2-3-1.61-4.44-2.77a6,6,0,0,0,3.17-.4C23.75,94.42,24.22,95.49,25.23,96.69ZM641.52,65.93c-3,2.2-6.45,1.67-10,1.92C633.88,64.53,636.93,66.93,641.52,65.93ZM490.6,70.47c-.43,1.12-3.32,1.66-2.42-1,.6-.2.86.17,1.15.53S489.85,70.72,490.6,70.47ZM504.33,65c.47-.73,1.89-1.05,3.54-1.11a22.21,22.21,0,0,1,2.7,0c.92.06,1.86.15,2.64.27,1.6.24,2.78.54,2.56.83-.1.14-.54.27-1.42.37s-2.12.15-3.85.15C507.93,65.56,505.94,64.38,504.33,65ZM39.06,55.36a5,5,0,0,1-3.86-2.14c3,.82,2.53-1.78,5.11-1.07C41.16,53.54,37.61,53.82,39.06,55.36ZM505.23,61a3.28,3.28,0,0,1,2.15-1,7.49,7.49,0,0,1,2.51.28c.83.22,1.71.49,2.42.71a4.56,4.56,0,0,0,1.71.32c-.36,1-.88,1.36-1.55,1.44a4.91,4.91,0,0,1-2.29-.51c-.81-.34-1.68-.77-2.54-1.06A3.83,3.83,0,0,0,505.23,61Zm-473-10.24c0-2.56,3-4.36,6.35-6.08C39.68,48.68,35.54,47.78,32.25,50.73ZM309.55,3.28a19.18,19.18,0,0,1-2.59.11c-1,0-2-.09-3-.19-2.14-.22-4.48-.59-6.89-1s-5-.81-7.5-1.17c-1.24-.19-2.46-.36-3.65-.49s-2.39-.21-3.51-.25c3.35-.63,8-.09,13,.67l1.88.3,1.83.33,3.65.66C305.14,2.67,307.52,3,309.55,3.28ZM143.42,10.89A15.58,15.58,0,0,1,138.05,12c-.78,0-1.53.06-2.35.15a13.47,13.47,0,0,0-2.58.55C133.06,11.5,143.53,7.94,143.42,10.89ZM606.29,235.5C602,238,592.92,237,588.77,236,591.82,233.12,600.1,235.89,606.29,235.5Zm57.12-28.35c-.23-1.66,4.54-1,3.39-3.08-8.74.89-11.25,7.94-17.25,7.9a14.28,14.28,0,0,0,7.36.82,31.47,31.47,0,0,0,7.29-2.06c4.72-1.83,9-4.24,12.2-4.26-5.36,3.95-14.15,7.24-23.07,8.93a66.57,66.57,0,0,1-13,1.28,31.37,31.37,0,0,1-10.63-1.61c-9.29,3.44-17.54.87-24.49,1.78,7-2.3,14.88-1.95,25.32-2.72-2.63-2.18-7.48-1.81-12.44-1.36s-10,1-13-.82c12.08-.39,24-2.09,36.23-1.94-4.35-2.09-8.85-2.18-14.37-1.83-2.76.18-5.77.5-9.13.75s-7.07.42-11.22.37c3.08-1.27,7-1.44,11.1-1.5s8.31-.07,11.91-.93c-3.58-1.82-11.24-1.55-18.58-1-1.84.15-3.65.34-5.37.53l-4.84.53c-3,.33-5.25.6-6.36.61-4.4.34-12.2.71-20.36,1-4.08.19-8.25.34-12.14.53-2,.09-3.8.2-5.59.31s-3.45.24-5,.37c.54,1.06,2.8.41,4.41.4-6.46,1.6-15.62,1.58-24.61,1.4s-17.78-.54-22.8.81c-.45-1.58,1.79-1.58,4-1.63s4.25-.14,3.57-1.82a20.94,20.94,0,0,0,3.51.87,26.9,26.9,0,0,0,3.61.31,46.61,46.61,0,0,0,7.54-.58c5.1-.77,10.41-2,15.93-2.57-.25-1.9-2.21-2.25-4.44-2.35s-4.85,0-6.21-.84c-.66,2.66,3.84.84,4.85,2.05-1.72,2.24-3.4,1.19-5.73-.07a15,15,0,0,0-4-1.66,10.34,10.34,0,0,0-5.58.36c.88-1.25,2.8-1.9,5.68-2a23.68,23.68,0,0,0-5.72-1,30.31,30.31,0,0,0-5.88.29,31.06,31.06,0,0,0-5.53,1.27,22.07,22.07,0,0,0-4.58,2c1.62-1.63-1-1.78-4.73-1.66-.93,0-1.92.08-2.93.13l-3.06.12c-1,0-1.94.05-2.79,0a18.75,18.75,0,0,1-2.24-.16c3.42-1.92,1.21-2-2.26-1.54l-5.73.76a32.32,32.32,0,0,1-4.45.4,101.83,101.83,0,0,1-11.56-1.15c-2.11-.33-4.24-.67-6.39-1.07s-4.33-.82-6.46-1.26c-8.55-1.75-16.47-3.66-22.81-4.1,2.15,2.4-4.23,3,1.35,4.43-.39.84-1.93.64-3.65.2a27.84,27.84,0,0,0-4.91-1.15c-1.05-1-1.1-2.19-1.64-3.27s-1.62-2-4.52-2.42c.64,1.07.42,1.45-.44,1.4a8.76,8.76,0,0,1-1.71-.37c-.71-.21-1.53-.49-2.4-.82-3.62-1.32-8.3-3.33-12.45-4,0,.7.74,1.18,1.88,1.56a18.55,18.55,0,0,0,1.93.5c.72.16,1.49.3,2.23.45,2.93.59,5.76,1.25,4.56,3-1.13-.44-2-.74-2.64-.95s-1.11-.36-1.52-.49a10.25,10.25,0,0,1-2.68-1.27c.06,1.93-1.41,4.27,1.3,5.51a7.4,7.4,0,0,1-3.07-1.09,39,39,0,0,1-3.27-2.23c-2.29-1.68-4.79-3.5-7.86-4.27.66-.82,2.26,0,3.56.21.19-1.31-2.94-1.63-.44-3.61a8.44,8.44,0,0,1-2.81-.1c-1-.17-2-.44-3.07-.69-2-.48-3.9-.83-5.23-.05-1.81-2.66-4.52-4.12-8-5.22s-7.65-1.83-12.19-3a4.72,4.72,0,0,0,2.15-1.94c-7.81.75-21.06-7.62-30.92-7.23-4.27-3.59-12.87-7.39-18.77-8.61-1.26,1.31,2.62,3.66,3.93,2.13-1.06,3.8-9.81-.86-13.06-2.41-1.08,2.06-8.12-.06-10.6-1.59-.63,1.72.9,2.23,2.61,2.52s3.72.41,3.78,1.24c-2.58.45-2.67.48-3.75,1.44-1.25-3.31-3.59-1.41-5.1-2.47,1.06.74,2.18-2.36-3.68-2.87,1-1.61,3.34.65,4.94.64-1-2-2.63-2-4.46-1.65-.92.18-1.84.46-2.72.62a4.43,4.43,0,0,1-2.49-.14c1.1-.56,2.22-1.1,3.35-1.62-.1-.94-2.12-.72-2.81-2.56-2.31.84-3.12,1.4-4,1.6s-1.89,0-4.3-.45a3.49,3.49,0,0,1,3-1.15c1.17.06,2.41.35,3.57.37.37-2.09-1.06-2.49-2.53-2.77s-2.89-.41-2.78-2.12c-1.7-.21-.23,2.25.24,2.63-1.51.93-1.76,0-2.18-1.12s-.94-2.29-3-1.9a6.9,6.9,0,0,1,1.48,1.86,3.52,3.52,0,0,0,2,1.57,4.63,4.63,0,0,1-3.54.39,14.36,14.36,0,0,1-3.22-1.58,13.1,13.1,0,0,0-3-1.51,2.89,2.89,0,0,0-2.77.61c-.45-.34-1-.72-1.5-1.05s-1.09-.66-1.68-1-1.24-.65-1.84-.9-1.25-.5-1.89-.71a13.34,13.34,0,0,0-3.73-.72,6.75,6.75,0,0,0-1.7.09,5.84,5.84,0,0,0-1.48.48c-1.18.14-.14-2.36-1.09-2.54a13.55,13.55,0,0,1-3.48.46h-3.32a10.81,10.81,0,0,0-6.94,2.36c-.06-1.76,1.05-1.75,2.2-1.68-.92-1.34-1.75-.85-2.5-.06-.38.39-.77.89-1.17,1.27a1.73,1.73,0,0,1-1.31.61c-.41-1.71.52-1.57,1.26-1.7a48.27,48.27,0,0,0-13.57.14,30.36,30.36,0,0,0-12.07,4.41c-.43,2.38-3.18-3-5.65-.34-1.85,1.25.7,1.73.12,3.38-1-.66-2.08-.08-3.24.3a3,3,0,0,1-3.7-1,1.88,1.88,0,0,1-1.21,1.79,13.18,13.18,0,0,1-2.85,1,11.19,11.19,0,0,0-2.83,1.06,1.81,1.81,0,0,0-1,1.95c-1.92-1.88-4.06-1.23-6.33-.46a20.89,20.89,0,0,1-3.59,1,6.84,6.84,0,0,1-3.9-.49c.54-.3,1.56-.89,2.93-1.55.68-.33,1.44-.67,2.26-1a25.86,25.86,0,0,1,2.53-.84,8,8,0,0,0-4.82,0,34.3,34.3,0,0,0-5.13,1.91c-3.27,1.44-6.33,2.86-7.42,1.22-3.28.38-2.85,3-5.62,1.95-.35,4.26-6.47,6.28-10.42,8.16,3,.44,9.71-1.88,11.47-5,.47,2.38,4.94.92,7.55,2.71-6.25.37-3.06,2.13-4.5,5.12-2.77-1.31-5.32.12-7.38,1.48s-3.65,2.64-4.59,1c-2.34,1-1.37,2.54-5,2.72,1,2,3.42-.54,4.27,2-3.16-.4-3.8,1.68-5.94,1.29-.44-.9,1-1.14,1.85-1.6-2.93-1.05-6.33-.58-10,1,4.35.74.47,1.27-3.55,2.41s-8.14,2.92-4.3,6c-2.42,1.33-4.5,1.38-6.63,1.68-1.58-2,5.14-1.26,3.58-3.23-1-.28-7.62,2.29-4.09,5.26-4.66-1-6.56-5.22-7.94-6.9-.71.51.5,1.62-.51,2,1.11,3,3.37,1.26,4.62,3.64-2.78.12-4.93-2.39-6.94-5.46-1.63,2.06-4,2.18-6.67,1.77-.48-.69.54-.93,1-1.33-1.5-1.44-4,1.26-5.9,1.5-1.56-1.5-4.81-.49-4.18-2.89-3.1.53-2.16,2.27-4.84,2.93-2.76-3.26-6-3.67-5.35-7,2.2-.15,1.76,4.95,5.05,5.28,1.4-1.77-.52-4.53,1.43-6.14.79-2.12-.59,3.07.34,4.47,11-1.36,17-4.47,25.1-8.26-5.5-.25-9.55,1.43-13,2.56s-6.43,1.7-9.81-.75c5.73,2.73.19-5.53,7-2.85-1.46-2.18,1.57-1,3.67-3.3-7.87.2-11.32,4.54-16.66,7.69-.2-1.15.67-2,2-2.69-1.3-1.38-3.57,1.22-5,.21,0-1.7,4.19-1.09-.28-1.74,2.94-4,9.15-3.82,13.1-7.17-4.62-1.33-6.92-4-8.94,1.77-1.78-1.23-2.92-4.79-7.37-1.57-.67-.77,3.48-4.88,6.62-6.4-.75-1.61-1.92-1.64-2.88-2.5-2.06.71-4,1.44-3,3-1.65-.87-3.55-.9-5.83.56-2.16-1.71-.25-2.28-1.86-3.84,2.08-.72,2,2.29,2.12,2.81,6.4-2.19-3-5.51,5.39-6.81-1.45-.77-3.35,0-5.08.23-2.58-2.4,2-2.79.62-4.84-7.42-3-4.2,2.35-10.47-1.23,3-.66,4.61,0,1.39-2.42,2.08-2.29,2.28,2.19,4,1.11-1.62-6.23-8.52,1-12.69,1.56-1.51-2.85,2.83-4.11,4.87-2,2.05-4,7-6.39,12.06-6.75-1.64-2.66-4.79-.17-7-.84,1.17,3.73-3.67,0-7.1,2-1.4-2.8-3.82-2-5.36-4.25-1.57,1.28,2.17,3.95-2,4.53-2-1.37,1.59-5-2.67-3.5-.56-1,2.43-2.75-1.08-1.41.85-3.88-4.91-2.66.65-4.9-2-1.37-4.93,1.68-4.45,2.79-2.1-.35-3.68-2.56-5.72-3.14-1.54,1.17-3.79,3-6.08.74,1.6.37,3.56-.47,5.54-1.44-3.93.45.46-4,2.27-2.81-.49-1.15-7.49-5.59-1.44-7.72-1.25,2.42.59,6.63,6.16,6.67,3.56-1.15-4.61-5.34,1-6-1.12-1.15-2.65-1-4.44,0-2.73-1,5.76-2.67,7.63-3.14a11.76,11.76,0,0,0-.76,4.91c2.94-2.2,5.08-1.3,6.24-3.46,3.56.44-2.4,3.11-4.87,3.82a5.22,5.22,0,0,1,2.42,1.77c-1.78,1-2.45-1.65-4.11-1.08-3.37,2.14,5.22,4.11-1.24,4.21,2.3,1.42,5.53-.49,8.6-1.69-4.83-.71,6-4.65,7-3.77-2.47-2.22-4.07-1.38-3.09-4.25-2.83,2.83-2.65.24-2.4-1.79-1.59.53-1.16,1.58-2.88,2.08-.27-1,0-1.9,1.52-2.44-1.55-.52-5.78.62-8.92,1.08s-5.2.29-2.41-2.93c-.82,2.6,2.91,2.8,5.51,1.44-2.15-.07-7-4.32-8.79-2.85-1.45.49-1.44-3.34.47-3.87-1.16-2.49-3.82.3-3-2.47-3.13,1.11-2.46,3.19-3,4.94-3.9.22-5.32-2.22-8.46.76,1-1.29.2-3-.1-4.59,1.32-.63,3.55-1,2.92-2.14,5.64.68,11.6,2.13,15.08-2.49-2.75-.77-3.7,2.16-6.58,1.75,4.23-4.64,5.86-7.5,1.08-12.36,2-.71,8.83-3,4.26-3.52C50.75,85,57,84.09,58.81,85c.34-2.52-4-1.5-2.14-4.62-2.17-.34-2.39,3-4.31,3.5-1.54.21-.31-1-1.53-2.14-3.73,2.47,1.73,3-5.19,3.87C44,89.92,44,92.92,42.85,95.48s-3.5,4.63-9.67,7.13c-3.69-.39,6.56-2.16,2.22-4.61-2.41-.57-2.2,1-5.76,1.47l-2.13-2.81c1.11-.32,1.71,1,2.47,1.74,1.63-.57,1.19-1.63,3-2.15-1.13-2-3.2-1.07-5.09-.66-1.29-1.85,2.66-2.43,1.38-4.27-2.82.17-.78,4.3-3.86,2.53-1.52-2.09,4.95-2.68.69-6.75-1.47-1.55-4.2,1.21-4.42,1.84-2.86,1.27,4.09-4.16,3.55-6.09,2-.72,2.62,2.83,4,3.86,8.42-3.81,9.26-6.63,16.37-7.5a3.51,3.51,0,0,0-3.71-.37c1.17-2.64,4.37-1.17,6.66-3.52,1.62,5.44,7.66-.92,6.18-4.21,2.53-1-.78,2.77,2.8.74.46.7-.72,1-1.3,1.4,3,1.75,1.61-3.81,5.39-2.06-2.46-3.88-3.73.81-7.39-.8-.4-1.27,2.41-1.7-.19-3.55-3.38.47.36,2.82-.71,3.9-3.86-3-2.93,1.13-7.32,1-.33-.86,1.45-1.18.8-2.12-2.61-.28-3.76,1.32-6.32,2.47.84,1.18-.58,2.21-1.54,4.26-2.11.84-1.08-2.07.76-2.13-5.47-.15,1.28-2.27.15-4.62-2.89,2-3.07,4.66-8.36,6.08,0,2,1.81,3.84,5,5.29A5.75,5.75,0,0,1,30,73.56c1.67.36,3.11,1.36,5.53-.39l-1-1.42c-.86-.8-2.31,0-1.8.72-1.44.26-1-1.21-.12-1.77-3.24,0-4.89,2.18-9.17,1.86-1.37-2.08,6.65-1.9,5.29-4-5.57.53-8,5.9-15.88,5.56,2.42-4.06,13.3-5.33,15-11.61.44,2.34,6.82-.46,7.31-2.9-2.33-1.64-1.7,2-4.17.74,2.6-3.49,13.6-4.83,16.44-8.2L44.86,48.6C49,47.54,47.48,43.84,46,40c.09-1.41,6.85-4.08,2.73-4.63a121.34,121.34,0,0,1,30.63-6.55,3,3,0,0,0,.45,2.52c-4.76,1-8.55,1.47-9.87-1-2.66,1.83-11.31,2.08-9.4,5.16-2.41-.39-18.72,6.16-8.31,8.47-1,2.29-5.51.79-2.68,4.61,3.6,1.76,10.61-4.3,17.19-5.46-4.12-.79-9.67,1.78-14.9,3.69,2.41-3.33,15-8.28,16.28-5.09,7.67-3.72,12.37-3.49,16.34-4.91-1-1.29-3.46.66-4.68-.14,1.39-1.4,4.08-1.83,8-3.67-5,.48-12.29,2.14-14,4.93-3.86-4.28,6.7-4.62,16-7.36-3.21-.26-6.25-.89-8.44,1.14.1-1.35,1.37-2.39,3.78-3.09-2-1.5-5.76,1-7-2,3.42-1.7,4.77,1.14,7.51.95q1.52-.57,3.15-1.08L90.3,26l1.79-.5c1.23-.34,2.48-.66,3.76-1l4-1c1.36-.34,2.74-.7,4.12-1.08s2.87-.79,4.3-1.23,2.87-.89,4.35-1.4,3-1,4.47-1.63c6.23-2.08,2,.92-1.83,1.43a25.1,25.1,0,0,1-4.67,2.25c-1.77.68-3.79,1.31-5.72,1.93s-3.82,1.25-5.54,1.92A19.65,19.65,0,0,0,95,27.91c-1.91.89-.81,2.64-1.16,3.93-1.52.46-3.35,1.58-4.2.56-.13,1.76.07,3.6-4.25,4.14A48.69,48.69,0,0,0,94.71,33a65.33,65.33,0,0,0,6-3.57,40.64,40.64,0,0,1,7-3.57c1.54-.6,3.31-1.19,5.41-1.78s4.67-1.19,7.61-1.77c-1.92,2.81,3.54.16,1.63,3,.71-.86,2.61-1.42,4.4-2s3.48-1.19,3.89-2.15c2.77-.76.6,2.17-1.51,2.16l2.5-.61,2.77-.62,6-1.31,13.23-2.73,6.56-1.39c2.14-.46,4.18-.92,6.06-1.4a52.06,52.06,0,0,0,9.31-2.9c5.53-.22,9.73.54,17.24-1.08-.37,1.07-1.39,1.89-3.81,2.19,4.21,1.08,7.16-.62,10.42-2.22S205.83,8,210.22,9.3c-.85.77-2.57,1.17-4.07,1.67s-2.73,1.13-2.68,2.25c3.45-.57,5.85-1.23,8.15-1.75a27.72,27.72,0,0,1,3.55-.56c.63-.05,1.29-.08,2-.07s1.5.06,2.33.15a13.14,13.14,0,0,0-4.7-1.27,54.42,54.42,0,0,1,8.94-1.05c3.77-.28,8-.3,11-.24s4.85.22,4,.43-4.29.46-11.81.91a25.83,25.83,0,0,0,8.15,1c1.63,0,3.34-.05,5.07-.08l5.16-.11c1.68,0,3.31-.05,4.79,0a32,32,0,0,1,3.91.32c2.23.35,3.56,1,3.4,2.12,1.52-.25,3.08-.46,4.66-.62s3.19-.24,4.83-.3,3.31-.09,5-.09,3.36.09,5.08.18c3.41.19,6.93.48,10.34.94q2.59.33,5.19.72c1.76.24,3.41.57,5.12.87s3.4.63,5.09,1,3.31.7,5,1.05l4.89,1.09,4.71,1.12L322,20c1.49.37,3,.72,4.42,1.06s2.92.67,4.35,1,2.76.61,4.12.87c3.09-2.47-5.35-1.49-2.28-4,8.06,4.4,17.72,6.68,26.42,8.85l3.24.82,3,.81c2,.56,4,1.15,5.67,1.76a37.75,37.75,0,0,1,4.82,2.07,18.61,18.61,0,0,1,3.7,2.56c.69-.1,1.39-.15,2-.18a17.36,17.36,0,0,1,1.91,0,20.26,20.26,0,0,1,3.71.63,40.39,40.39,0,0,1,7,2.73c4.51,2.15,8.75,4.57,12.88,4.69-1.13,3.77,3.18,2,4.38,4.91,4.07-2.27,7.19,1.49,12.62,1.4.89.86.71,2.09,0,3.51,2.28.64,3-2.31,4.76-2.87.33.93,4.64,3.36,6.1,1.94-.6,4.76,14.25,4.48,17.47,9.08-3.05,1-8-2.23-11.76-2.87.12.94,1.55,1.4.45,2.77,2.24.57,5.36,1.14,8.22,1.88a29.44,29.44,0,0,1,3.93,1.24,7.19,7.19,0,0,1,2.55,1.57c2.24-.46,1.89-1.07,1.23-1.78s-1.74-1.57-.76-2.46a118.32,118.32,0,0,1,12,4.51,18.1,18.1,0,0,0,8.81,1.64c-.45,1-.92,2-1.38,3.07.48-.06.86-.65,1.34-.53.84-.17.25-1,1-2.3l1.79.42,1.66.36c.09,1.11-.29,1.25-.87,2.33.72.41,1.33.09,1.76-1.33a2.5,2.5,0,0,0,.73,1.66,1.92,1.92,0,0,0,.75.39,3.1,3.1,0,0,0,1,0,8,8,0,0,0-1.05,2.3,11.2,11.2,0,0,1,.9-1.09c.16-.08.31.13.79.52,0-.82-.6-.92-.07-2.46.57.25.76-.11.72-.44a.55.55,0,0,0-.85-.42c.72-1.21,1.08-1,1.35-.47s.49,1.46.76,1.59c-.54,1.39-.62,0-1-.13-.14,1.1,0,1.48.33,1.5s.74-.33,1.17-.65.88-.66,1.21-.59.56.53.67,1.74c-1,2.48-.37-2.54-1.92-1a3.68,3.68,0,0,0,1.69,2.76,3.91,3.91,0,0,0,1.84.61,3.27,3.27,0,0,0,2-.55,1.11,1.11,0,0,0-.85-.63l-.74-.12a6.14,6.14,0,0,1-1-.19c-.52-.67-.08-.81.59-.8s1.67.17,2.06.14c.2-2-.81-2-1-3.29.5-1.51,1-.94,1.69-.29s1.2,1.45,1.34.41c.34.72-.36,3.56,1.88,3.26a2.21,2.21,0,0,1-2.1,1.57c.6.65,1.13.69,1.6.39a5.42,5.42,0,0,0,1.37-1.63c.94-1.41,1.82-3,3.48-2.77-.59,1.18.06,1.51,1,1.48a11.73,11.73,0,0,0,3.15-.77c-.29-1.07-1.55-.63-2.46-.74-.31-.69.68-.86,1.84-.79a8.83,8.83,0,0,1,3.09.62c-1.45,3.18,1.15,2.5-2.26,4.12a15.14,15.14,0,0,0,6.65.82c2.11-.18,4.27-.6,7.42-.82-2-1.73-3.12-1.62-4.52-1.23a14.79,14.79,0,0,1-2.33.56,7.61,7.61,0,0,1-1.53,0,9.23,9.23,0,0,1-1.82-.34c1.94-1.93,1.63-.32.37-3.25a23.55,23.55,0,0,0,8.52.27c-1.76,2.27.87,2.85,3.35,2.16,2.47,0-2.31-2.14.42-2.46-2.33-1.39-5.3-1.77-8.39-1.81,1-.15,2.09-.27,3.24-.37s2.47-.21,3.78-.29C524,68.52,527,68.32,530,68l2.26-.29,2.26-.37c1.49-.27,2.92-.58,4.27-1a19.3,19.3,0,0,0,6.79-3.08,5.45,5.45,0,0,1-2.21,1.86c3.55,1,7.63.81,9.42-.23,2.3,1-2.64,2.66-3.56,3.66.71.75,2.11.61,2.18,2.2,5.78-1.66,6.32.44,11.86-1.4a3.54,3.54,0,0,1-5.75,1.5c3.91,4.77,14.5.53,18,5.92,1.27-.47-1.09-1.31.47-1.71-2-.81-3.58-2.13-5.88-2.5,1.4-2.5,5.25.46,8.49-1.14,1.21,3.2-1.89-.07-4.05,1.38,2.3,2.13,7.69,0,8.21,4.61,2.06-1,5.32,1.72,6-.86,2-.28.26,2.21-1.29,1.83,2.18,2.16,2-2.63,5.78-1.66-2.85-3.07-4.51-2.87-6.23-2.58s-3.5.65-6.5-2.16A120.79,120.79,0,0,1,593,73c4.24.5,8.57,1.18,12.92,1.77s8.72,1.14,13,1.41c2.15.14,4.3.23,6.42.23s4.2-.1,6.26-.29c3.19-.28,6.1-1.23,8.95-1.51a11.39,11.39,0,0,1,8.58,2.31c2.37-2,4.12-.71,7.65-1.56-1.66,1.94-5.28,2.81-8.54,3.9s-6.22,2.29-6.59,4.95c-7.72,1.49-15.93,1.1-24,.65-4.07-.26-8.12-.51-12.12-.57a74.73,74.73,0,0,0-11.82.59,14.81,14.81,0,0,0,7.75.75,27.44,27.44,0,0,1,8.73,0c-5.33,1.67,4.13,3.79-1.91,2.78,2.69.25,6.24.36,10,.53s7.8.35,11.43.8c-1.11-1-3.17-.64-4.86-.81a16.53,16.53,0,0,1,4.11-1.08,21.46,21.46,0,0,1,5-.15c3.31.3,6.39,1.48,7.57,4,2.46-1,4.39-.07,6.38.61s4,1.16,6.67-.65c1.81.28-.22.94-1.46,1.13,2.16,2.26,7.65-.83,9.89,1.33,2.22-.14-1.81-3.43,1.74-2.88,0,1.24-.54,2.22-.56,3.47,4.76-.64,1.91-2.72,6.7-2.26,1.32,2.94-.61.44-2.33,1.33,3.81,3,12.17,5.25,16.51,3.1,1.45,1,.66,1.37-.83,1.6s-3.68.27-5,.55c1.07,2.08,5.09-.83,5.67,2.1l-6.21,1.38c.89,1.95,3.6.87,6,.36-1.06.39-1.3,4-.26,1.74-1.08,3-3.38,4-6.82,4.59-1.73.28-3.75.48-6,.8a65.07,65.07,0,0,0-7.76,1.51c3.15.86,3.79-.09,4.78,2.38,1.3-.19,2.6-.41,2.42-1.35,1.85,3.11,12.19.39,14.18,3.67,3.3-.55,5.23-1.73,5.4-3.72,1.6.36,3.34.49,4,2.45-2.68,2.06-5.68,2.56-8.38,3.17a18.22,18.22,0,0,0-3.79,1.15,7.2,7.2,0,0,0-3,2.4,8.84,8.84,0,0,0,4.39,1,12.93,12.93,0,0,0,4.47-1.23c.36,3.39-2.29,1.74-4.28,4.3,3.4.84,7.35-2.31,4.91,2.28,4,.35.93-2.51,4-2.56.73,1.28-.77,2.35.94,2.31-3.83,2.85-6.35,5.38-9.88,7.43a29.09,29.09,0,0,1-6.3,2.74,57.22,57.22,0,0,1-9.5,1.93,82.76,82.76,0,0,0,11.2-.66,21.46,21.46,0,0,0,9.5-3.61c.27.75-.91.84-1.58,1.17,1.09,1.67,5-1.06,6.25.32-4,1-8.17,2.92-12.28,4.38s-8.2,2.38-12,1.52c0-1.24,1.32.06,2.84-.57a11.15,11.15,0,0,0-8.43.34c-2.47.93-5,2.2-8.92,2.15a21.79,21.79,0,0,0,7.57.94c2.78-.06,5.76-.37,8.73-.72-8,6.17-24.42,6.33-43,7.69,8.26.94,22,.46,28.39.09,2.53-.12-.17,2.39-2.37,2.08,1,1.69,5.13-.91,6.32.51.46,1.75-4,1.08-5.54,1.84,1.92.83,4.53.88,6.94.83s4.61-.25,5.75.14c1.09-.35.31-1.58.15-2.53,2,.62,6.43-2.14,9.94-1.11-.67,2.85-5.75-.37-6.49,2.11,4.93.87,6.53-.09,12.47,0-1-.9-2.61-1-4.45-.76,4.54-1.69,14.76-1.4,20.54-1-.77,1.58-3.83,2.15-4.9,3.58,2.49,1.49,7.74-1.24,8.43-2.68,2.85,1.27-4.39,3.59-5.27,5.36-1.89.3-1.68-2.42-3.84-1.69-.77,1.67-3.05,2.69-5.52,3.63s-5.14,1.73-6.72,3.07c1.47,1.09,4.49,0,6.48.36.86-.92-1.42-2,3.34-2.37-.93,3.23-1.54,6.63-7.83,7.45a28.12,28.12,0,0,0,8.36-.61c3.21-.67,6.06-1.78,6.18-3.23,2.2,1-1.92,4.69-1.57,7,3.08.8,3.77.25,2.18,2.9,3.31-.08,1.11-2.53,4.4-2.61-.8,3.29-4,5.56-7.95,7.54.65,1.07,3.11-.36,3.62.92.92.11-13.87,1.89-13,6-8.41.56-21.42,2.46-28.82,7.79a18.73,18.73,0,0,0,6.22.32,37.86,37.86,0,0,0,6.3-1.29c2.06-.58,4.06-1.25,5.92-1.85a44.16,44.16,0,0,1,5.09-1.46c-.72,1.75-3.73,2.49-6.68,3.22s-5.84,1.49-6.35,3.35c3.11,1.13,6.82-.74,9.86-2.14s5.46-2.31,6.11.82c1.48-.2,3-.43,2.81-1.36,2.29,2.77-7.89,5.69-10.23,8.59a2.93,2.93,0,0,0,.24-2.53C669.1,202.94,666.69,207.68,663.41,207.15Zm-22.4-2c-4.93,2.3-9.8-2-10.35,1.6C634.11,206.11,640,209.23,641,205.12Zm-87,1.19a18.46,18.46,0,0,1,3-.37l3.36-.16c2.2-.12,4.15-.4,4.86-1.4-1.27,0-2.48,0-2.36-1.39a72.2,72.2,0,0,0,11.43.23c1.9-.28.76-1-6.59-2.34,1.3.11,6.3-.83,2.91-1.14-12.45,1.88-17.64.34-25.64,4.95,2.2.65,4.87.27,6.8.13S554.88,204.75,554,206.31ZM166,165.11c-1.06.36-1.54-1-2.53-.9.7,2.8-3.22.86-3,2.86C162.11,167.91,167.12,167.94,166,165.11Zm298.47-97c2.68.38,4.52,4.78,6.74,1.1C468.29,68.92,467.46,65.71,464.44,68.07ZM592.8,78.44c1.8.81,8.42.29,9.42-1.44-3.74.61-5.83-1.15-8.56-2C594.87,77.09,592.39,76.86,592.8,78.44Zm37.8,124.17c11.6-1.34-3.19-2.27-7.41.28C625.24,201.88,628.08,202.91,630.6,202.61Zm-33.28-1.11a44.53,44.53,0,0,1,7.12-1.74,60.81,60.81,0,0,1,7.25-.76c4.87-.23,9.77-.1,14.56,0a108,108,0,0,0,13.82-.35A30.63,30.63,0,0,0,652,195.06c-4.5-.17-9.29-.29-14.16-.3s-9.83.06-14.69.24-9.63.56-14.12,1.08c-2.25.26-4.42.59-6.51,1s-4.07.79-5.95,1.28c2.78-.72-1.49,2.42-3.07.4C594.83,201.13,597.22,199.83,597.32,201.5Zm23.18-.68c-4.32.39-7.53.49-10.55.6s-5.83.21-9.37.48C603.93,204.12,620,202.18,620.5,200.82ZM293.89,151.58c.48.33,1.43.44,1.06,1.18-.67,0-1.45-.41-1.87.31,4.63,4.16,10.88,6.52,20.41,5.49a10.87,10.87,0,0,0-3.15-1.83,44.45,44.45,0,0,0-5.07-1.91c-3.3-1-6.06-1.32-4.6.56a16.12,16.12,0,0,1-3.14-2c-.93-.74-1.85-1.52-2.72-2.1a6.65,6.65,0,0,0-2.85-1.17,5.29,5.29,0,0,0-1.67.07,7.31,7.31,0,0,0-1.86.7c1,1.46,3.72-1.16,2.87.82-.09.46-.48.59-1,.56a9.73,9.73,0,0,1-1.69-.38c-1.08-.33-1.89-.61-.95.5.44.09.87.19,1.28.31a7.42,7.42,0,0,1,1.18.41,2.44,2.44,0,0,1,1.43,1.27C292.28,153.27,292.77,151.51,293.89,151.58ZM125.42,176.41c-2.92.36-2.52,1.77-2.89,2.94-1.09-2.77-3.44-.24-2.33.91C122.48,180.09,126.59,179.12,125.42,176.41Zm.78-.3c1-.24,2.13-1,2.84-.18-.84.46-2.31.72-1.84,1.6,3.51-1.62,8.9-2.6,7.9-5.71C133.8,174.73,126.88,174,126.2,176.11ZM276.69,146.9c-3.8,1.53-5.33-.75-7.38,0a11.79,11.79,0,0,1,1.84.84,12.16,12.16,0,0,0,2,.92C274.46,149.12,275.7,148.91,276.69,146.9Zm204.83,52.31c7.73.34,16.4.56,24.26.19s15-1.3,19.93-3a19.78,19.78,0,0,0-6.18,0c-1.17.14-2.45.31-3.68.51l-3.68.6c-4.78.78-8.79,1.27-8.15-.3-10.25,1.68-21.11,1.16-30.77-.26-4.83-.7-9.39-1.64-13.37-2.55s-7.38-1.82-10.16-2.48c5.83,3.72-3.43-1.52-5.7-.14a4.88,4.88,0,0,1,3.21,1.16c.69.6.65,1.16-1,.89a99.34,99.34,0,0,0-30.32-9c-4-.61-7.79-1.09-11.21-2a24.89,24.89,0,0,1-9.4-4.35,8,8,0,0,1-4.23.61,10.74,10.74,0,0,1-3.21-1.13c-1.95-1-3.74-2.09-6.41-1.26,2.1.43,3.17,1.23,2.63,2.59-.78-.05-1.73-.53-2.18.19,1.08.27,2.36.55,3.77.82l4.7.88c1.71.31,3.45.63,5.28,1s3.62.73,5.32,1.12c6.88,1.57,12.48,3.43,9.43,5.77a10.87,10.87,0,0,0,4.38,2.22,32.14,32.14,0,0,0,5.82.92c4.3.39,9.52.46,15.56,1.37,3.63.55,7.83,1.48,12.27,2.43l3.35.73,3.4.71c2.25.47,4.51.9,6.68,1.28,8.72,1.52,15.67,2.08,16.86.33C481.08,199.9,483.87,202,481.52,199.21Zm-322-38.08c-.5-.36-3.37-.07-6,.62s-4.95,1.81-4.39,3.08C152.73,162.76,154.6,163.1,159.52,161.13Zm376.37,34.58c-3.11.37-7.78-.16-7.69,2.14a25.67,25.67,0,0,0,4.89-.47A3.81,3.81,0,0,0,535.89,195.71Zm-161.4-21.22c-9.08-2.22.25,2.75,4.79.65C376.46,174.1,376.45,175,374.49,174.49Zm-115-35c-1.27.48-2.83.59-3.37.8s-.2.27,2.43.72c.55-.72,1.19-.23,1.83,0s1.32.4,2-1.15C260.43,140.16,261.1,140.26,259.51,139.48Zm-30.85-3.64a6.56,6.56,0,0,1-2.2,1.15c-.38.12-.75.21-1.14.3l-1.17.26a15.29,15.29,0,0,0-2.28.62,5.45,5.45,0,0,0-2.06,1.35,11.68,11.68,0,0,1,2.18-.33c.76,0,1.55,0,2.36,0,1.63,0,3.22.24,4.75.27h1.12c.36,0,.71,0,1.05,0a8.46,8.46,0,0,0,1.93-.32,5.44,5.44,0,0,0,1.64-.8,5,5,0,0,0,1.31-1.44,31.75,31.75,0,0,0,4.41,1.48c.73.15,1.45.32,2.18.46s1.46.23,2.21.29,1.52.19,2.3.24c.39,0,.78,0,1.18.06l.61,0,.62.05c.83.06,1.68.1,2.55.13l.65,0,.68,0,1.39.1c.21-2.52,1.8-2.13,2.85-3,1.61,2.35,3,1.8,5.61,1.6a1.58,1.58,0,0,0,.58,1.72,2.7,2.7,0,0,0,.88.35,7.36,7.36,0,0,0,1.14.18c1.64.17,3.64,0,4.73.72.36-.57.58-1.52,1.21-1.42.76,1.55.81.09,2.53.53,3.21.63,2-.2-.12-1.05a25.47,25.47,0,0,0-3.49-1,3.56,3.56,0,0,0-2.39,0,3.24,3.24,0,0,0-3.69-1.5,22.69,22.69,0,0,1-2.46.3h-.75c-.26,0-.52,0-.8,0a11.19,11.19,0,0,1-1.83-.28c.32-2.33-1.45-.71-2.39-2.72-.42,1.06-3.41,1.35-5.66,3.56.15-1.4-.53-1.7-1.38-1.45a5.25,5.25,0,0,0-2.39,2.05,1.73,1.73,0,0,0-.92-1.6,2.87,2.87,0,0,0-.95-.31,5.1,5.1,0,0,0-1.11,0,11,11,0,0,0-2.23.4,5.25,5.25,0,0,0-1.48.66c0-1,.64-1.14.45-2.43-1.78,2-1.65,1.26-3.28-.73a6.87,6.87,0,0,1-3.31,1.68,8.6,8.6,0,0,1-2,.15,5.17,5.17,0,0,1-1.92-.51c.07.95.48,2.26-.14,2.44C228.84,136.26,228.49,139.92,228.66,135.84ZM119.6,169.58c-.91,1.19-4.24,1.61-2.41,3.66C119.54,172.51,121.53,171.67,119.6,169.58ZM411.24,182.4c2.71-1.62,6.28-.49,10.42.91s8.91,3.07,13.26,2.48c-3.88-1-3.75-1.11-2.57-1s3.62.23,4.43-.22l-3.42-1.39c-1.24-.51-2.55-1-3.83-1.43-2.54-.81-4.83-1.22-6.17-.31,1.35.47,3.44.71,3.23,1.66-6.33-2.6-14.53-2.06-17-4.59,1.43-.51,4.12.91,4.42-1.32-3.5-.86-6.39-1.84-6.57-3.66,2.09.11,3.11,3.48,5.21,1.54-1.4-.63-.33-2-.9-2.86.87.06,2.07.58,2.48-.14a25.17,25.17,0,0,0-5-2.16,38.55,38.55,0,0,0-4.65-1.11c-1.5-.28-3-.54-4.46-.88-.73-.18-1.46-.38-2.18-.63a16.6,16.6,0,0,1-2.12-.87c.92.47.92,1.26.94,2a8,8,0,0,0-6.88-1c-1.94.43-3.87.89-6.7-.73-.62,1.46-1.92,1.32-2.59,2.68,1.61.56,2.18,0,1.73-1.2,2.2.62,8.89,1,3.93,2.13,3.24,1.37,6.6-.29,4.33-2.13.88.28,1.39-.27,2.18-.18.08,1.3,2.08,1.43,3.5,1.53s2.34.2.13,1.38c2.21.21,8.77.66,9.66,3-1.27-.29-2.5-.5-2.84.88.87,1,2.27.79,3.44.85s2.07.39,1.9,2.49c-2.1-.4-8.8-1.78-7-.37C406.25,178.53,411.28,179.77,411.24,182.4Zm-22.45-14.75c-.61-4.46,6.51.3,2.15-3.7a8.72,8.72,0,0,0,3.47-.65c-4.2-1.73,2.39-.47,3-1.66-6-1.21-4.9-2.27-5.7-4.45-1.2,2.52-9.35-2.05-7.38,2,2.14-1.29,7,1.4,6.55,3-.77-.05-1.73-.53-2.17.18.58.38,1.7.57,1.31,1.3l-4.36-1.39a8.06,8.06,0,0,1-3,1.66C378.32,164.58,390.34,163.22,388.79,167.65Zm-.09-12.31c-4.31.33-7.45-4.06-10.45-1.57,1,.81,5,.57,3.93,2.13-2.38-1.32-8.23-1.85-6.52.55.58-1,3-.17,2.61.83-.77-.05-1.72-.52-2.17.18A23.27,23.27,0,0,0,388.7,155.34ZM383.61,173c1.51.6,2.47-.08,3-1.66a5.48,5.48,0,0,0-5.2,1.85,17.41,17.41,0,0,0,6.55,3c-.73-5,5.21-2.15,8.95-2.42-2-1.16-3.62-2.4-6.82-3-2.46,2.19-2.41.61-3.45,4.16C385.44,174.32,383.3,174.1,383.61,173Zm67.48,14.16c.66.3,1.8.79,3.09,1.27a32.58,32.58,0,0,0,4,1.23,5.09,5.09,0,0,0,2.9.11c.54-.27.52-.9-.37-2.05-.73.87-2.35.36-4.19-.18S452.73,186.43,451.09,187.17Zm19.63-.83c-3.79-.33-7.65-.76-11.43-1.26s-7.53-1.07-11.19-1.71a3.7,3.7,0,0,1,2-2.14,28,28,0,0,0-8-1.1c-2.39-.1-4.37-.3-5.73-1.56-.56.87-.66,2.24-2.16,2.05-7-3.4-11.54-5.16-15.52-3,4.84,1.34,8.87,2.43,12.51,3.34l2.62.66,2.51.61,2.39.58,2.36.53c1.56.36,3.09.7,4.72,1s3.25.67,5.06,1,3.67.66,5.79,1,4.38.64,6.94.94a2.72,2.72,0,0,0,.89,2.55,18.56,18.56,0,0,0,5,.38,12.17,12.17,0,0,0,3.52-.75c2-.76,3.52-1.83,5.62-2.48a3.15,3.15,0,0,1-1.61,2.32c2.34-.21,4.73-.38,7.2-.5s4.89-.27,7.2-.5c1-1.68-.56-1.72-2.44-1.68s-4,.22-3.75-.92a92.36,92.36,0,0,1,11.47,1,19.51,19.51,0,0,0,4.46,0,7.93,7.93,0,0,0,3.72-1.55c-1.72.08-3.65,0-5.43,0a8.61,8.61,0,0,0-4.23.82c1.62-1.88-.12-1.5,1.29-4a10.13,10.13,0,0,1-6,2.85,25.61,25.61,0,0,1-6.4-.39C479.78,183.71,475.53,183,470.72,186.34Zm.26-1.6c-.49-1.27-1.88-1.94-3.4-2.23a10.72,10.72,0,0,0-4.28,0c-1.06.26-1.49.7-.48,1.15S466.31,184.62,471,184.74Zm156-10.36c-2.48-1.56-1.94.38.23.79a34.85,34.85,0,0,1,5.26-.83c1.66-.16,3.24-.24,4.72-.37,3-.27,5.53-.72,7.6-2.47C638.2,171.33,632.39,171.83,627,174.38Zm42.88-9.06a17.45,17.45,0,0,0,6.54,1.14c2.46-.07,4.74-.78,5.5-2.66-3.9-.32-4.94.14-4.62,1.76C676.28,164.1,670.77,163,669.83,165.32Zm-138.92,17.8a42.2,42.2,0,0,1-15.5,1.66,11.15,11.15,0,0,0,4.69,1.76,23.46,23.46,0,0,0,2.87.28c1,0,2,0,3,0A79.23,79.23,0,0,0,537.68,185C531.41,185,532,186.05,530.91,183.12Zm-24.79,1.94c-1.35,2.73,8.08,1.78,8.2.58-2.52-.11-3.51-.16-4.37-.21S508.33,185.3,506.12,185.06Zm96.42-9.6c-3.86.83-6.5-1-7.75,1.84C597.78,177.91,601.06,177.42,602.54,175.46Zm54.28-8.54c3.68-1.85,8.34.85,9.81-1.81C664.75,162.75,655.71,166.29,656.82,166.92Zm-124,14.44c-.16-2.35-4.66-2.13-5.58-1.23.09.8.18,1.6.28,2.41C530.22,182.69,529.73,180.91,532.86,181.36Zm-26.85.48c.26.82-1.59.41-3.59.11s-4.22-.54-4.67.76c.61.81,3.73,1,6.09.79S507.94,182.63,506,181.84Zm44.22-3.58c4.94.19,16-.73,7-.7-1.22,0-3.27-.27-5.6-.25a17.52,17.52,0,0,0-7.47,1.51c.16-1-3.39-2.5-3.21-.53a8.25,8.25,0,0,1,3.34,1.33c-.57,0-1.06.76.13.79.41-.7,1.46-1,2.62-1.27A13.88,13.88,0,0,0,550.23,178.26Zm-28.34,3c-2.88.37-5.55.54-4.64-2.19-1.67.2-4.16-.13-4.44,1,1.33.07,3.18-.26,3.44.67a1.2,1.2,0,0,0-1,1.65c.48,0,1.36-.06,2.35-.08s2.09-.07,3-.13C522.47,182,523.65,181.79,521.89,181.26Zm16.71-4.4c-1.74.62-6.29-.49-6.17,1.29,2-.06,1.09,2.6,3.51,2.17C536,178.66,538.55,178.52,538.6,176.86Zm-126.5-9.79c.87.07,2,.57,2.42-.15-3.79-1.25-6.25-1.92-3.84.6-3.56-.09-1.74-1.9-3.09-2.69,0,1.29-1.9,1-3.45.65s-2.72-.71-1.61.4c3.1.42,7.78,3.52,10.17,2.24C412.11,167.89,411.57,167.65,412.1,167.07Zm11.1,4c1.79.59,3.29,1.05,4.59,1.38s2.35.54,3.16.67c1.61.25,2.3.13,2.1-.13a7.22,7.22,0,0,0-2.9-1.05A42,42,0,0,0,423.2,171.1Zm1.92-6.35c.61.23,1.18.46.68,1-1.17-.58-6.53-1.65-3.53-.1.73.39,2.05.59,1.72,1.33-.66-.13-1.3-.23-1.43.47,1.7,0,5.15,2.37,5.73.67C426.45,167.62,428.5,162.67,425.12,164.75Zm-12.39-1c1.46.17,2.7,1.19,4,2s2.63,1.27,4.1.41c-1.71-.65-2.9-1.37-4.08-1.86A6.92,6.92,0,0,0,412.73,163.79Zm-311.57-11.6c-6.76,1.57-8.07-.12-11.27,4.48l1,1.42c1-.29,2.74.53,2.41-1-1.71-.42,1.7-.8,2.17-2.7,0,.86,0,3.36,2.35,1.81C94.1,153.76,105.39,153,101.16,152.19ZM63,131.8c.81,1.41,2.1,1.17,2.93,2.48,1.16-.63,3.26-1,2.8-2.05C66.47,133.13,65.21,130.72,63,131.8Zm8.37-15.29c2.26-1.53,1.28-1.14,4.25-1.67-1.59-2,2.09-3.09-2-2.85C76.66,115.75,69.75,113.19,71.32,116.51Zm-1.68-8.46c-1.14.72-5.54,3.36-1.9,3.49-1.41-2.47,5.08.4,3.78-2.4A1.72,1.72,0,0,1,69.64,108.05Zm-13.21,1.6c-.24-2.68-5.81-.06-4.8,1C53.71,110.35,55.88,111.57,56.43,109.65Zm-5.85-.39c-.45-.92.64-.81,1.71-.69-1.3-2,1.38-3.08.85-4.93A5.76,5.76,0,0,1,50,104C54.08,106.41,47.09,108.88,50.58,109.26Zm1.87-8.09A32.59,32.59,0,0,0,58,102.62c1.75-.5,1.34-1.56,3-2.08,8.24-4.67-6.34,2.47-4.14-1.11.28.4,1.29.53.87-.34C56.66,98.76,51.67,99.45,52.45,101.17ZM487.19,105a4.29,4.29,0,0,1,3.59-.15c1.12.28,2.2.54,3.22-.35a7.57,7.57,0,0,0-2.55-.63c-.84-.07-1.58-.08-2.24-.13-1.3-.08-2-.39-1.64-2C485.43,101.37,486.18,101.09,487.19,105Zm-20.26-9.67a8.86,8.86,0,0,1-2.34-.63c-.67-.28-1.29-.62-1.92-1a12.34,12.34,0,0,0-4.73-1.62c-.33,1.35,1.09,2.49,3,3.13A9.54,9.54,0,0,0,466.93,95.36Zm-12.6-4.26a4.16,4.16,0,0,1-1.46-.38c-.53-.22-1.07-.48-1.59-.65-1-.33-1.93-.31-2.32,1.15l4.56,1.38Zm-9.73-3.87c1.58-.79,2-1.57,1.71-3-1.11-.42-3.32-.86-2.1.21.28.19.7.33,1,.51s.45.4.26.76c-2-1.29-6.42.84-4.67,2.9.46-.7,1-.25,1.86.35a4.71,4.71,0,0,0,3.14,1.23,2.71,2.71,0,0,1,2.36-1.61,9,9,0,0,1,3.21.52c2.17.67,4.05,1.58,4.51.68a13.37,13.37,0,0,0-5.65-2.61A10.09,10.09,0,0,0,444.6,87.23ZM384.12,67.08c-1,1.34,0,2-.84,3.24,17.12,1.81,30,8.86,43.6,13.89,1.77-1.85,1.14-1.63,4.33-2.12-3.66-2.79-12.4-4.47-4.39-4.91a25.24,25.24,0,0,0-12.19-2.13c.23,2.69,6,.66,5.67,2.69-8.6,1-19.9-7.57-30.94-9-2.76,3.21,2.86-.3,1.76,2.31C385.69,71,385.82,69.82,384.12,67.08ZM63.92,79.38c.58.48,1,1.4,1.87,1.09L64.3,78.32c-.84,1-7.09,3.44-2.95,3.85-.49-1.36,1.25-.29,2.67-1C63.83,80.52,63.07,79.73,63.92,79.38Zm555.1-.2c4.12-.94,6.43,0,7.7-1.34C624.62,77.49,619,75.84,619,79.18Zm-30.54,3.17c1.29,2.82,4.47,1.82,5.6.82A22.91,22.91,0,0,0,588.48,82.35ZM435.07,75.43c-3.11.24-3.26-3.42-5.23-1.67.49,2.06-6.18-1.6-7-.46,1,.49.06,1-.86,1.47C426.09,74.34,432.35,79,435.07,75.43ZM421.57,72c-1.71.66-6-.37-4.81-2.41,2.13.79,1.91,2.29,3.92.38-6.44-1.28-8.38-5.76-14.37-3.71,2,.67,3.3-.46,5.65.93-.3,3.14,1.13,1.87-2.59,2.68C413.06,71.17,419.92,73.75,421.57,72Zm158.74,9.85c-.26.66-2.22,0-4.33-.43s-4.4-.68-5.35.89c3.07-.41,5.72.39,3.16,2C576.26,85.64,582.47,83.18,580.31,81.85Zm-25.79,4c3.36-.43,14.38,1.53,17.35-2.1-2-1.17-6.45-.09-2.42,1.13a36.39,36.39,0,0,1-3.69-.08c-1.34-.09-2.74-.19-4.12-.24C558.88,84.52,556.25,84.73,554.52,85.89ZM404.13,66.44c-5.49-1.11-8.27-3.71-11.32-1.85C397.89,65,399.58,67.79,404.13,66.44ZM467.52,75a6.39,6.39,0,0,0-3.35.75,5,5,0,0,1-1.76.34,4.07,4.07,0,0,1-2.09-.61,3.91,3.91,0,0,0,1.05,1.71,5.91,5.91,0,0,0,1.71,1.1,13.44,13.44,0,0,0,2,.69c.7.19,1.38.33,2.05.5a14,14,0,0,1,1.84.54,4.08,4.08,0,0,1,1.38.84c.7.7,1,1.8.6,3.59-1.13-3.3-1.52-.21-3.65.78,2.3.91,3.29-.75,3.23,1.65a1.08,1.08,0,0,1,1.46-.51c1-2.6.62-4.31,2.76-5.26A2.15,2.15,0,0,1,477,82.46c.68-1.31,0-2.13.85-2.34a2.5,2.5,0,0,0,1.05,1.68,4.21,4.21,0,0,0,1.92.71,4.37,4.37,0,0,0,2-.24,2.4,2.4,0,0,0,1.27-1.1c-2.71-2-4.82-2-7.71-3.88a3.29,3.29,0,0,1,.85,1.86,3.07,3.07,0,0,0-1.57-.28c-.57,0-.91.22-.22.74.54.24,1.46.17,1.19,1.09a4.22,4.22,0,0,1-2.23-1.79,6.18,6.18,0,0,1-.57-1.19c-.15-.41-.27-.82-.38-1.21a6.3,6.3,0,0,0-.65-1.86c-.31-.43-.75-.6-1.54-.32,1.75-.13.34,1.86.61,2.73-2.33-.75-1.57,0-1.29,1.37a11,11,0,0,0-1.85-1,6.85,6.85,0,0,0-1.28-.43,7.57,7.57,0,0,1-2.6-1A2.41,2.41,0,0,0,467.52,75Zm19,8.87c-.47,1.34-1.43,1.17-2.36,1.12a1.87,1.87,0,0,0-2.36,1.57,2,2,0,0,1,1.9-.27,5.33,5.33,0,0,1,1.58,1c1,.74,1.92,1.4,2.54-.06-.88-.36-1-.53-1-.93A7.25,7.25,0,0,0,486.49,83.91Zm-20.16-2.33c-2.08-.59-3.95.08-5.74,1a5.37,5.37,0,0,0,2.75,1.13,3,3,0,0,1,2.13,1.1C466.32,83.4,465.58,82.92,466.33,81.58Zm-26-4.48a5,5,0,0,1,3.38,0,18.76,18.76,0,0,1,1.9.66l1.91.75c2.57,1,5,1.62,7-.44a11.83,11.83,0,0,1-4.47,0c-.6-.12-1.23-.29-2-.48s-1.53-.4-2.59-.62c1.64-2.34-2.47-2.65-1.34-4.81,2.4-.22,4.3.73,6.06,1.48.44.19.9.37,1.34.52a7.39,7.39,0,0,0,1.33.33,5.56,5.56,0,0,0,3-.38c-4.94-2-9-3.8-12.47-5a37.85,37.85,0,0,0-11.88-1.92c2,2.88,9.83,1.31,11.35,5.38-3.5-1.76-.15,1.69-2.6.92-1.14-2.11-6-2.25-8.28-1.76,3.23,1.59,9.83,2,10.9,4.36C437.87,75,437.81,76.27,440.31,77.1ZM374,54.23c.59.37.65.93,0,1.75,3.6-2.08,10.4,3.18,13.92.93C385,57.09,376.41,53.66,374,54.23ZM560.59,77c-1.81-1.36-6.87,1.52-7.35-1.58a44.84,44.84,0,0,1,6.85,1.32c2.43.63,4.95,1.35,7.41,1.92a37.46,37.46,0,0,0,7.07,1.07,11.07,11.07,0,0,0,5.81-1.19,25.4,25.4,0,0,0-6-.71,17.21,17.21,0,0,1-5.86-1c.62-.26,1.69-.23,1.53-1-1.62,0-5-2.84-6.17,0a7.2,7.2,0,0,1,2.93,1.26c-1.14.14-2.28.3-3.43.43.15-1.56-2.36-3.07-5.22-3.66s-6.08-.26-7.44,1.88c2-4.88-6.49-1.46-8.62-4,3.9-.78,5.74,1,7.48-1.62-5.31.79-6.89,0-11,1.18-.08,1.4,1.64,1.91.44,2.39-1.77-.16-6.69-1.33-7.62.76,6.93-1.26,14.35,3.82,15.76.81,1.33,1.15,4,1.9,6.7,2.21S559.19,77.65,560.59,77Zm-40,6.5a17,17,0,0,1-3.77.54c-1.21,0-2.33,0-3.4,0-2.1,0-3.89.26-5.18,1.78a11.36,11.36,0,0,1,4.62-.25c.79.09,1.61.21,2.42.36s1.62.3,2.45.43c3.26.53,6.63.63,9.46-1.8,2.22,3.84,8.45-4.9,11.27.56,1.81-1.48-3.34-5.66-4.17-3.64.43,1-.07,1.47-1.1,1.75a17.12,17.12,0,0,1-4.16.27c-3.25-.06-6.71-.38-7.55.72,1.09,0,1.11,2-.57,1.66C521,84.75,521.64,84.5,520.56,83.52Zm-29.69,4,1.5-.26,1.46-.27a15.51,15.51,0,0,0,2.05-.47c.38-.14.37-.26-.22-.35s-1.74-.15-3.59-.21c0-1,0-1.91-.89-1.66a1.53,1.53,0,0,1-.94.41c-.42.08-.87.11-1.29.16-.84.11-1.46.26-.92.85C491,85,489.33,87.15,490.87,87.47ZM481.73,85c-1.4.29-3.4-1.61-4.56,0a3.1,3.1,0,0,0,2.19,1.09A3,3,0,0,0,481.73,85ZM420.64,64.69c1.47-2.48-3.16-2.79-3.52-4.62a14.07,14.07,0,0,1-7.8,2.77c1.55,2.7,5.66.85,7.42,3.24,2.88-2.2-2.71-1.39-1.33-3C419.51,60.49,414.35,64.3,420.64,64.69ZM399.71,58c-.48,2.91,5.3,3.6,8.31,5.27C408.51,60.38,402.73,59.7,399.71,58Zm90,22.09c-2.37.87-3-1.83-4.19,2A28.28,28.28,0,0,0,492,83a25.81,25.81,0,0,0,8.8-1.82,4.88,4.88,0,0,0-3.26-.62,22.06,22.06,0,0,0-2.2.19c-.75.08-1.46.17-2.17.28C490.41,81.43,488.52,81.62,489.72,80.12Zm53.41-2.75c-.34-2.92-8.63-1-9.58.15C537.48,78.68,539.35,78.54,543.13,77.37ZM454.05,69.2c-3.43-.81-6.37-2-6.88-3.94-1.27,3.42-6.49-2.28-7.38,2,2.35-.56,4.68.53,7,1.46a15.62,15.62,0,0,0,3.6,1A6.25,6.25,0,0,0,454.05,69.2ZM398.81,52.47c.67-2.77-7.86-4.18-8.72-2.78C392.3,51.94,395.11,49.79,398.81,52.47Zm20.91,4.91c-2.36,2.26,5.53,3.85,6.54,3A17.43,17.43,0,0,0,419.72,57.38Zm20,1.12c-2.35-.21-5.79-2.94-7.4-1.48C436.24,57.27,437.09,61.18,439.73,58.5ZM67.25,45.68c1.72.39,8.26-1.18,8.35-3C73.89,42.26,67.31,43.84,67.25,45.68Zm51.57-21.93a35.1,35.1,0,0,1-3.42,1.7c-1.31.6-2.77,1.24-4.3,1.9l-2.35,1c-.78.35-1.53.7-2.29,1.06-1.51.73-3,1.48-4.36,2.27a39.39,39.39,0,0,0,4.08-1.05c.82-.25,1.68-.53,2.54-.84s1.81-.65,2.69-1a29,29,0,0,0,4.77-2.39A6,6,0,0,0,118.82,23.75ZM71,149.68c4.08,1.42,4.47,1.67,8.87-.88C80.13,151.75,73,153.89,71,149.68Zm446.33,80.2a17.55,17.55,0,0,1,3.31-1.19,29.38,29.38,0,0,1,3.6-.69c1.23-.16,2.55-.26,3.83-.33s2.61-.1,3.95-.11c5.28-.08,10.73,0,15.19-1.17a23.66,23.66,0,0,1-2.8,1c-1,.25-1.95.46-3,.64a62.46,62.46,0,0,1-6.5.71c-1.15.08-2.4.15-3.7.22l-4.09.22c-1.47.09-3,.18-4.62.31S519.17,229.7,517.35,229.88Zm77.33-16.6c3.37-1,4.12.85,4.9,2.65-3.75.53-8.43,0-12.6-.27s-7.87-.29-9.72,1.27c-.58-3,3.74-2.7,8.23-2.29S594.68,215.65,594.68,213.28Zm-119.39,4.17c-.24.82-1.74,1.18-3.63,1.26a25.33,25.33,0,0,1-3-.07c-1-.08-2.06-.23-2.94-.39-1.77-.33-3-.74-2.74-1s2-.39,6-.24S471.06,218.52,475.29,217.45Zm93.88-3.71c.28.86-2.19.35-5.2-.05s-6.53-.68-8.56.61a3.85,3.85,0,0,1,2.66-1.69,29.69,29.69,0,0,1,4.32-.68c3.08-.34,6.19-.66,7.06-2.28C573.27,210.12,565.14,213.15,569.17,213.74ZM242.5,151.2c-.87.83-2.14.61-3.39,0l-.46-.23-.47-.21-.87-.43a6.78,6.78,0,0,0-1.25-.55,2.1,2.1,0,0,1,1.51-.22,8.55,8.55,0,0,1,.91.22c.3.11.6.25.9.38A7.17,7.17,0,0,0,242.5,151.2Zm265.72,57.19c2.3,1.18-4.37-.17-7.93.9,0-.79,1.66-.63,2.67-.82,0-.39-.43-.54-1-.62s-1.2-.08-1.72-.17c-1.51-.89.16-.84,2.34-.52A36.35,36.35,0,0,1,508.22,208.39ZM313.53,163.82c1.06,3.43,5.78.74,8.27,1.77-1.67,2.49-5,1.23-7.37,2-.46-2.35-1.14-1-2.63-2.59a3.05,3.05,0,0,1,3-1.67C316,164.19,314.44,164.16,313.53,163.82Zm-67.69-13.37c.26.39-.11.48-.75.39a12.76,12.76,0,0,1-2.4-.55c-.43-.13-.84-.31-1.19-.45a3.86,3.86,0,0,1-.84-.41c-.37-.28-.32-.52.56-.65a5.17,5.17,0,0,0,2.33.82,9.08,9.08,0,0,1,1.22.25A3.05,3.05,0,0,1,245.84,150.45Zm244.93,56.34c1,.72-.91.41-3.4-.1-1.24-.25-2.59-.55-3.75-.76a11.32,11.32,0,0,0-2.67-.29c-.42-1.12,1.27-.88,2.92-.67s3.28.4,2.84-.71C489.92,204.11,488.17,206.65,490.77,206.79ZM348,173.92c-1.34,1.54-4.47-1.07-6.53-1.2,2.42-.77,5.45-.12,8.26,0C348.8,173.25,346.62,173.07,348,173.92ZM223.53,148c.91,1-.33.61-1.81.28a7.87,7.87,0,0,0-2.18-.27c-.63.06-1.06.3-1,.88-1.11-1.19-.18-1.64,1.21-1.71A8.68,8.68,0,0,1,223.53,148ZM484,186.41c-.83.62-2.51.76-4.24.66a20.27,20.27,0,0,1-4.6-.83c-1.05-.35-1.35-.67-.12-.71a26.11,26.11,0,0,1,3.08.19C479.55,185.87,481.44,186.07,484,186.41Zm206.37-33.56c-.07-.69-.66-.65-1.26-.56.81-2.78,2.79-1,6.43-2.22.09.9-1.71.94-1.31,2C689.39,150.7,693.39,151.54,690.32,152.85ZM71.53,158.71c.78-1.26-1.41-3.34-1.61-4.88,4.68,2.4,2.35,5.43,5.88,7.72a5,5,0,0,0-2.92.3,3.4,3.4,0,0,0-.82-2.44c-1-.85-2.44.26-3.72.65,2,1.07,2,1.12-.26,1C66.63,159.89,70,157.29,71.53,158.71Zm618.78-34.39c1.37-.54,3-5.77,4-2.56,1.14-.52,0-2.1-.36-3.29,1.11-.12,1.54-.54,1.5-1.19C698.56,119.93,696.91,123.79,690.31,124.32Zm-662.62-11c-1.07.27-1-.5-.54-.7-3.33-4.81-9-1.78-12.88-4.71,1.49-.75,2.5.07,4-.79-3.7-3.78-7.18-3.17-8.85-8.3,1.61-.29,2.47,1.87,4.58-.11-.41,3.23,4.17,6.54,8.15,3-1.11,2.08-1.91,3.53,2.16,2.8,1.22,1.79-2.76,1.44-3.46,1.47L23,108.75c1.67,1.12,3.75.88,5.93.27C29.13,110.58,26.69,111.51,27.69,113.27ZM674.37,75.73c-1,2.19-5.36-1.85-7.09.73.35-.72,2.58-3.24-.92-2.32C665.28,71.6,671.94,75.9,674.37,75.73Zm-44.26-9.29A14.5,14.5,0,0,1,623.19,69a40.41,40.41,0,0,1-8.49-.1c-3-.27-6.06-.77-9.1-1.13a61.52,61.52,0,0,0-8.84-.57c0-1.63-5.53-1.34-1.5-2.24,5.58,1.39,11.27.93,17.06.57a84.94,84.94,0,0,1,8.77-.27A37.62,37.62,0,0,1,630.11,66.44ZM578.5,64.07c-1.88.07-4.39.1-7.19.07s-5.89-.17-8.91-.36c-6.06-.42-11.84-1.16-14.64-2.39C559.19,62.79,569,61.74,578.5,64.07ZM10.27,72.42c-.26,1-1.87,1.39-4.87,3-1.05-3-4.23.33-5.4-2.34C3.51,72.56,6.77,72.87,10.27,72.42ZM134.48,20.93c-.07-.48.79-1.07,2-1.67.61-.31,1.3-.62,2-.92l2.19-.86c2.78-1.1,4.65-1.93.75-1.82.83-1.75,2-1.43,3.52-1a6.4,6.4,0,0,0,5.59-.41c-.3.48-3.12,1.68-6.33,3-1.63.67-3.41,1.36-5.13,2S135.83,20.49,134.48,20.93ZM7.11,42.43c-.4-2.85,4.1-4.59,5.88-6.93,1.85-.62,2.35,2.1,4.36,1C15.08,38.45,9.87,39.38,7.11,42.43Z"/><path class="cls-2" d="M309.81,91v3.22a3.94,3.94,0,0,0-2.37-1.08,2.26,2.26,0,0,0-1.85.92,3.53,3.53,0,0,0-.72,2.33,4.47,4.47,0,0,0,.51,2.2,10.19,10.19,0,0,0,.86,1.27c.41.51.93,1.14,1.56,1.87a14.49,14.49,0,0,1,2.39,3.53,8.63,8.63,0,0,1,.64,3.53,7.46,7.46,0,0,1-1.4,4.68,4.35,4.35,0,0,1-3.58,1.79,4.57,4.57,0,0,1-3.14-1.16v-3.26a4.59,4.59,0,0,0,2.79,1.28,2.16,2.16,0,0,0,1.84-.89,4,4,0,0,0,.67-2.44,5.47,5.47,0,0,0-.51-2.39,9.76,9.76,0,0,0-.74-1.16,18.62,18.62,0,0,0-1.17-1.47c-.73-.82-1.34-1.55-1.81-2.19a10,10,0,0,1-1.07-1.66,8.22,8.22,0,0,1-.66-3.52,7.26,7.26,0,0,1,1.3-4.55,4.21,4.21,0,0,1,3.52-1.69A5.61,5.61,0,0,1,309.81,91Z"/><path class="cls-2" d="M316.61,90.48h2.24L323.43,115h-2.85l-.8-4.77h-4.23l-.82,4.77H312Zm2.76,17.15-.64-3.9q-.63-4-1-8.49c-.13,1.46-.29,3-.5,4.46s-.44,3.1-.71,4.79l-.53,3.14Z"/><path class="cls-2" d="M322.94,90.48h2.83l1.29,9,.22,1.64.46,3.55c.07.6.14,1.15.2,1.64s.11,1,.16,1.35l.13,1.21c0-.25.06-.46.07-.65s0-.35.06-.48l.37-2.84.49-3.72c0-.34.09-.65.13-.93s.08-.54.12-.77l1.38-9h2.68L329.34,115h-2.28Z"/><path class="cls-2" d="M335.11,90.48h7.65v2.79H338V101h4.23v2.79H338v8.35h4.77V115h-7.65Z"/><path class="cls-3" d="M349.57,90.48h9.36v2.89h-3.22V115h-2.82V93.37h-3.32Z"/><path class="cls-3" d="M360.52,90.48h2.88v9.57h4.22V90.48h2.88V115h-2.88V102.84H363.4V115h-2.88Z"/><path class="cls-3" d="M373.79,90.48h7.65v2.79h-4.77V101h4.23v2.79h-4.23v8.35h4.77V115h-7.65Z"/><path class="cls-4" d="M286.91,89.94c1.09,14.21-3.86,43.38-21.33,62.46-14,15.3-19.34,16.25-35.11,29.94-4.52,3.93-30.8,3.66-30.8,3.66s12.56,8.49,20.9,21.11c2.74,4.16,7.1,6.68,13.35,8.84,2.64.9,2.69,6.08-2.37,6.24-5.7.18-8.71,1.72-11.94,1.72-1.38,0-1.69-2.23-4-2.8s-5.24.54-6,0c-4.64-3.18-3.82-5.76-6.88-5.55-7.26.51-7.71-2.48-11.21-4.78-8.19-5.39-2.59-4.95-4.08-6.06-12.08-9-2.6-9-6.48-13.33-3.39-3.76-3.07-4.26-7.32-6-15.51-6.46-15.94-11.91-20.51-14.12-8-3.87-16.15-8.76-22.57-16.68-5.39-6.65-6.53-19.32-9.48-29.3-1.75-5.93-3.91-7.85-4.46-15.08-.37-4.85,2.83-4.85.37-8.72-2.26-3.55-3-9.35-.65-14.86,2.13-5,8.4-1.29,8.4-1.29,2.27-5.82,12.93,0,15.84,4.84,5.88,9.81,24.89,19.73,36.83,22,8.25,1.55,13.39,5.71,16.48,8.08,2.82,2.17,4.29,5.53,7.5,6.67,5.08,1.8,22-4.19,30.41-9.15,2.82-1.66,10.55,3.63,13.78,2.16,2.37-1.08,2.37-1.08,4.49-3.51.27-.31,3.91,2.82,6.5-4,3.66-9.69,8.3-14.53,8.83-16.59,4.74-18.52-1.29-29.51-9.48-45.88-1.69-3.38-18.73-8.17-32.95-4.09-7.56,2.17-12.24,8.71-17.88,15.29-2.59,3-4.31-4.73,3.66-18.09,2.89-4.83,6.21-9.81,12.84-12.06,5.74-2,15.81,1.29,20.55,2.15,6.29,1.15-.22-4.31,10.33-13.35,5.42-4.64,13.5-4.23,21.15-2.09,10.74,3,17.2,6.18,18.92,10.92,2.74,7.53-.42,8.35-.42,8.35s-8-9.06-13.79-10.29c-4.67-1-6.33-.68-11.57.93-6.88,2.11-4.76,16.37-3.36,17.9,8.72,9.47,22.46,30.5,23.54,44.5"/><path class="cls-5" d="M231.79,216.21c-3.13,4.7-6.85,3.62-10.34,3s-8.45-3.43-11.58-4.59c-4.28-1.58-8.31-2.43-8.73-5.46-1.53-10.92-4.1-2.79-7.87-7.64-3.63-4.69-4.8-9.83-8.63-12.94a13.25,13.25,0,0,1-4.69-8.9c-10-5.89-6.18-11.94-8.08-15.06-1.56-2.56-1-3.19-7-5.9-4.24-1.92-3.06-8.18-5.46-11.79-4.45-6.69-3.86-7.61-7.21-14.85-2.91-6.3-9.46-7.3-12.88-12.32-5-7.25-10.49-21.52-17.7-21.09-3.6.22-3,2.85-3.71,3.5s-2.6-.68-3,6.56c-.6,10.6,5.2,9.6,9.78,38.2,1.33,8.26,11.8,17.25,27.26,24.77,5.19,2.53,2.9,7.35,22.54,14.53a11.84,11.84,0,0,1,6.66,7.68c.52,2-4.48,3.9,5.59,11.73,2.08,1.62-7.66-1.06,9.81,11.38,2.64,1.89,4.33-1.77,7.26-.14,2.37,1.32,3.22,6.91,9.82,5.56,2.32-.48,1.92,1.57,5.76,2.66,0,0,5.33,0,8-1.36,3.66-1.86,5.34,3.12,8.27-3.91C236.61,217.56,233.81,213.18,231.79,216.21Z"/><path class="cls-5" d="M252.08,156.1c-16.21,5.74-16.83,16.92-22.57,17.3-16.41,1.1-8.41,6.12-18.36,4.18-10.61-2.07-24.37-12.27-23.71-8.77,1.62,8.77,12.23,17.19,12.23,17.19,10-2.18,26,5.05,36.2-8.19,3.33-4.33,18-13.64,24.24-19.71,12.94-12.65,16.06-27.93,18.33-38.1C281.27,107.35,272.35,148.92,252.08,156.1Z"/><path class="cls-6" d="M231.79,216.21c-3.13,4.7-6.85,3.62-10.34,3s-8.45-3.43-11.58-4.59c-4.28-1.58-8.31-2.43-8.73-5.46-1.53-10.92-4.1-2.79-7.87-7.64-3.63-4.69-4.8-9.83-8.63-12.94a13.25,13.25,0,0,1-4.69-8.9c-10-5.89-6.18-11.94-8.08-15.06-1.56-2.56-1-3.19-7-5.9-4.24-1.92-3.06-8.18-5.46-11.79-4.45-6.69-3.86-7.61-7.21-14.85-2.91-6.3-9.46-7.3-12.88-12.32-5-7.25-10.49-21.52-17.7-21.09-3.6.22-3,2.85-3.71,3.5s-2.6-.68-3,6.56c-.6,10.6,5.2,9.6,9.78,38.2,1.33,8.26,11.8,17.25,27.26,24.77,5.19,2.53,2.9,7.35,22.54,14.53a11.84,11.84,0,0,1,6.66,7.68c.52,2-4.48,3.9,5.59,11.73,2.08,1.62-7.66-1.06,9.81,11.38,2.64,1.89,4.33-1.77,7.26-.14,2.37,1.32,3.22,6.91,9.82,5.56,2.32-.48,1.92,1.57,5.76,2.66,0,0,5.33,0,8-1.36,3.66-1.86,5.34,3.12,8.27-3.91C236.61,217.56,233.81,213.18,231.79,216.21Z"/><path class="cls-6" d="M252.08,156.1c-16.21,5.74-16.83,16.92-22.57,17.3-16.41,1.1-8.41,6.12-18.36,4.18-10.61-2.07-24.37-12.27-23.71-8.77,1.62,8.77,12.23,17.19,12.23,17.19,10-2.18,31.42-1,43.9-13.17,3.91-3.82,10.34-8.66,16.54-14.73,12.94-12.65,16.06-27.93,18.33-38.1C281.27,107.35,272.35,148.92,252.08,156.1Z"/><path class="cls-7" d="M144.06,140.49c4.35,6.77,10.31,12.55,15.8,18.39a245,245,0,0,0,20,19.34c.85.71,3.93-.57,3.1-1.27a239.45,239.45,0,0,1-19.27-18.56c-5.72-6.07-12-12.1-16.54-19.17-8.29-13-8.28-29.44-17.13-42.22-.59-.86-3.82.22-3.1,1.27C135.76,111,135.7,127.5,144.06,140.49Z"/><path class="cls-7" d="M153.58,145.08c6.64,6.35,15.81,10.1,19.77,18.89.52,1.16,3.79.13,3.32-.89-3.59-8-11.19-11.91-17.65-17.24-8.73-7.2-12.38-18.33-15.92-28.73-.4-1.18-3.7-.23-3.32.89C143,127.35,146.24,138.07,153.58,145.08Z"/><path class="cls-7" d="M123.26,135.4c-.58-1.41-4.31-10.05-3.25-8.69,10.13,13.06,3.14,20,30.76,42.53,1.18,1,5.62,5.81,4.19,4.82C130.4,157,130.11,151.84,123.26,135.4Z"/><path class="cls-7" d="M185.68,173.23c5.88.77,11.4,3.07,17.32,3.64a47.4,47.4,0,0,0,14.3-1,60.82,60.82,0,0,1-28.14,0c-.83-.19-3.76,1.13-2.71,1.38,12.49,2.91,25.38,3.17,37.14-1.87,16-6.88,29.62-20.1,28.49-19.25-18.9,14.34-32.88,19.31-34.49,19.71,1.95-.48,1.41-2.33-.59-1.91a41.33,41.33,0,0,1-18.61-.16,113.46,113.46,0,0,0-11.48-2.63C185.47,170.92,183.44,172.94,185.68,173.23Z"/><path class="cls-7" d="M277.42,117.62c-3.26,13.74-4.72,25.48-25.87,42.12-17.66,13.89-38.44,27-61.3,19.16-.74-.26-3.68.94-2.74,1.27,19.67,6.78,40.5-.43,56.66-12.21,14.62-10.67,25.73-18.47,30.05-36.66C274.38,130.62,277.62,116.8,277.42,117.62Z"/><path class="cls-7" d="M239.3,174.19c-14.38,13-29.16,12.55-47.33,9.7a2.58,2.58,0,0,0-1.22.24c0-.13-.13-.26-.37-.35-19.28-7.21-34.91-23.48-47.65-39.19-12.25-15.11-10.4-36-21.91-51.34-.72-1-3.93.2-3.08,1.34,6.14,8.19,8.21,18,10.81,27.74,2.52,9.42,6,17.61,12.35,25.09,11.34,13.33,24.14,27,40,35a99.67,99.67,0,0,1-10.4-4.21c-9.66-4.82-17.06-12.94-24.22-20.81-7.41-8.16-14.61-16.45-18.27-27s-4.65-21.82-8.76-32.25c-.52-1.32-3.81-.35-3.33.89,4.12,10.43,5.11,21.69,8.76,32.25,3.5,10.11,10.15,18.23,17.22,26.07,6.48,7.17,13.05,14.55,21.21,19.88,9.29,6.06,21.24,7.06,29.64,14.5,1,.87,4.11-.44,3.07-1.37a32.18,32.18,0,0,0-7.45-4.85,3.52,3.52,0,0,0,1-.23c0,.22,7.44-1.76,7.93-1.69,30.08,4.16,44.84-11.38,60.82-23.62C259.57,158.82,248.61,165.79,239.3,174.19Z"/><path class="cls-3" d="M199.38,213.88c.39.34,1.35.26,1.33.72s-1.85,0-2.08.26c-.55.63-.14.32-.81-.26-.4-.36-.94,0-.9-.51,0-.3-.24-.87.17-.78C198.1,213.53,198.72,213.3,199.38,213.88Z"/><path class="cls-3" d="M185.16,191.89c.37.53.9.79.27,1.23s-1.11-.06-1.48-.59-1.36-.67-.74-1.11A1.53,1.53,0,0,1,185.16,191.89Z"/><path class="cls-3" d="M187.46,194.92c-.26-1-.91-1.76.31-2.06s1.66.76,1.92,1.79,1.7,1.84.48,2.14A2.5,2.5,0,0,1,187.46,194.92Z"/><path class="cls-3" d="M216.79,221.53c-.54-.48-1.18-.63-.62-1.27s1.22-.21,1.76.27,1.66.38,1.09,1A1.7,1.7,0,0,1,216.79,221.53Z"/><path class="cls-3" d="M212.72,220.18c-.32-.28-.7-.37-.37-.75s.72-.12,1,.16,1,.23.65.6A1,1,0,0,1,212.72,220.18Z"/><path class="cls-3" d="M209.76,216.44c-.27-.24-.6-.32-.31-.64s.61-.1.88.14.83.19.55.51A.85.85,0,0,1,209.76,216.44Z"/><path class="cls-3" d="M188.17,198c.22.36.55.55.13.81s-.71-.08-.93-.43-.86-.49-.44-.75A1,1,0,0,1,188.17,198Z"/><path class="cls-3" d="M188.28,200.66c.23.35.56.55.14.81s-.72-.08-.94-.44-.42-.24,0-.51S188.06,200.31,188.28,200.66Z"/><path class="cls-3" d="M191.61,198.77c.22.35.55.54.13.81s-.71-.09-.93-.44-.86-.48-.45-.75A1,1,0,0,1,191.61,198.77Z"/><path class="cls-3" d="M195.61,208.06c-.22.93-1-1.22-1.91-1.43s-1.88.53-1.67-.39-.54-1.89.39-1.67S195.82,207.14,195.61,208.06Z"/><path class="cls-6" d="M176.72,154.76c0,2.06-4.72,1.73-6.78,1.73s-3.61-4.47-3.61-6.53,1.83,5.48,3.89,5.48A62.8,62.8,0,0,0,176.72,154.76Z"/><path class="cls-6" d="M176.15,152.91c0,1.44-4.38,1-5.82,1s-2.52-3.12-2.52-4.56,1.28,3.82,2.72,3.82S176.15,152.91,176.15,152.91Z"/><path class="cls-6" d="M119,95.68c.26.45,1.19.69,1,1.12s-1.75-.61-2-.44c-.73.41-.24.24-.67-.52-.27-.47-.88-.34-.69-.78.12-.28.07-.91.43-.68C117.88,94.92,118.54,94.91,119,95.68Z"/><path class="cls-6" d="M150.83,124.39c0,.66,1.43,1.71.2,1.71s-2.2-2-2.2-2.66-1.6-.76-.38-.76S150.83,123.73,150.83,124.39Z"/><path class="cls-6" d="M126.8,96.73c.09.46.56.76-.54,1s-1.36-.24-1.46-.71-1.24-.75-.13-1S126.71,96.27,126.8,96.73Z"/><path class="cls-6" d="M156.59,125.41c.09.47.36.8-.19.91s-.72-.37-.81-.84-.71-.85-.16-1A1.11,1.11,0,0,1,156.59,125.41Z"/><path class="cls-6" d="M142.86,112.15c-.21.92-1-1.23-1.9-1.44s-1.89.54-1.68-.39-.54-1.88.39-1.67S143.07,111.22,142.86,112.15Z"/><path class="cls-6" d="M122.76,91.83c.13.68.83,1.11-.8,1.43s-2-.37-2.12-1.05-1.83-1.1-.21-1.42S122.62,91.15,122.76,91.83Z"/><path class="cls-7" d="M328.36,118.6l8.53,21.9L345.8,117l8.53,23.49,9.06-21.9h5.37l-14.64,34.84-8.43-23.21-8.78,23.24L323,118.6Z"/><path class="cls-7" d="M382.12,131.42h14.14V118.6h4.94v32.77h-4.94v-15.3H382.12v15.3h-4.94V118.6h4.94Z"/><path class="cls-7" d="M432.64,143.41h-14l-3.65,8h-5.33l16.21-34.83,15.64,34.83h-5.41Zm-2-4.65-4.86-11.14-5.09,11.14Z"/><path class="cls-7" d="M454.88,118.6v28.12h9.63v4.65H449.93V118.6Z"/><path class="cls-7" d="M491.63,123.25H478.49v7.87h12.75v4.65H478.49v10.95h13.14v4.65H473.55V118.6h18.08Z"/><path class="cls-7" d="M521,123.48l-4,2.38a7,7,0,0,0-2.14-2.55,5.7,5.7,0,0,0-6.16.49,3.63,3.63,0,0,0-1.35,2.89c0,1.6,1.18,2.88,3.56,3.86l3.27,1.34a13.86,13.86,0,0,1,5.83,3.93,8.89,8.89,0,0,1,1.85,5.7,10.05,10.05,0,0,1-3,7.47,10.37,10.37,0,0,1-7.54,3,10,10,0,0,1-7-2.53,11.57,11.57,0,0,1-3.42-7.1l5-1.11a8.46,8.46,0,0,0,1.19,4,5.64,5.64,0,0,0,8.29.57,5.34,5.34,0,0,0,1.53-3.92,5.69,5.69,0,0,0-.26-1.75,4.68,4.68,0,0,0-.83-1.47,7,7,0,0,0-1.45-1.25,14,14,0,0,0-2.13-1.11L509,135q-6.72-2.84-6.72-8.32a7.88,7.88,0,0,1,2.82-6.17,10.18,10.18,0,0,1,7-2.5Q517.81,118,521,123.48Z"/></g></g></g></svg>