<?xml version="1.0" encoding="utf-8"?>
<!-- Generator: Adobe Illustrator 22.1.0, SVG Export Plug-In . SVG Version: 6.00 Build 0)  -->
<svg version="1.1" id="Capa_1" xmlns="http://www.w3.org/2000/svg" xmlns:xlink="http://www.w3.org/1999/xlink" x="0px" y="0px"
	 viewBox="0 0 533.3 533.3" enable-background="new 0 0 533.3 533.3" xml:space="preserve">
<g>
	<g id="XMLID_1_">
		<g>
			<path fill="#F50915" d="M266.7,0c147.3,0,266.7,119.4,266.7,266.7c0,147.3-119.4,266.7-266.7,266.7C119.4,533.3,0,413.9,0,266.7
				C0,119.4,119.4,0,266.7,0z M292.5,356.3c89.4,6.9,139.3-89.2,127.1-177.9C408.8,99.7,330.4,59.7,246.8,69.1
				c-66.1,7.4-132,60.9-134.7,137.3c-1.7,46.7,11.5,81.7,55.9,91.5c19.2-34-6.2-41.5-10.2-66.1C141.5,131,274,62.2,343.4,132.6
				c48,48.7,16.4,198.6-61,183c-74.1-14.9,36.3-134.2-22.9-157.6c-48.1-19.1-73.6,58.2-50.8,96.6c-13.4,66-42.2,128.2-30.5,211
				c37.8-27.4,50.6-79.9,61-134.7C258.1,342.4,268.3,354.4,292.5,356.3z"/>
		</g>
		<g>
		</g>
	</g>
</g>
</svg>
