<?xml version="1.0" encoding="utf-8"?>
<!-- Generator: Adobe Illustrator 22.1.0, SVG Export Plug-In . SVG Version: 6.00 Build 0)  -->
<svg version="1.1" id="Layer_1" xmlns="http://www.w3.org/2000/svg" xmlns:xlink="http://www.w3.org/1999/xlink" x="0px" y="0px"
	 viewBox="0 0 441.5 441.5" enable-background="new 0 0 441.5 441.5" xml:space="preserve">
<g id="XMLID_1_">
	<g>
		<path fill="#F50915" d="M441,220.6C441.6,342,343,440.8,221.1,441C99.5,441.2,0.8,342.5,0.9,220.9C1.1,99.2,99.1,1.2,220.8,0.9
			C342.1,0.6,440.4,98.7,441,220.6z M336.2,173.2c8.7-6.7,16.2-14.6,22.3-24.1c-9.8,2.7-19,5.2-28.3,7.7c-0.2-0.4-0.4-0.8-0.6-1.2
			c10.2-7.3,18-16.4,21.8-28c-10,3.6-19.9,7.1-29.8,10.7c-3.1,1.1-5.3,0.4-7.9-1.9c-16.2-14.2-34.9-18.4-55.2-11.4
			c-20.5,7-33,21.9-36.6,43.4c-1.1,6.8-0.2,14-0.2,21.6c-46.1-3.2-83.7-22.7-113.5-57.5c-5.2,7.9-8.2,19.1-7.7,29.1
			c0.9,18.2,8.9,32.7,23.4,43.8c-0.3,0.4-0.6,0.8-0.8,1.3c-7.6-2.1-15.2-4.2-22.9-6.4c0,12.9,4.2,24.3,12.1,34.3
			c7.9,10,18.3,16.2,30.7,19.5c-0.1,0.4-0.1,0.8-0.2,1.2c-7.5,0-15,0-23.3,0c9.4,23.8,26.2,36.2,51.5,38.8
			c-12.1,9.3-24.5,15.3-38,19.2c-13.5,3.9-27.4,4.6-41.7,3.8c0.5,0.8,0.7,1.2,0.9,1.3c0.8,0.6,1.6,1.1,2.5,1.6
			c45.9,25.8,93.7,29.1,142.2,9.4c57.9-23.6,95.6-82.8,95.2-147.1C331.8,178.1,333,175.6,336.2,173.2z"/>
	</g>
	<g>
	</g>
</g>
</svg>
