<?xml version="1.0" encoding="utf-8"?>
<!-- Generator: Adobe Illustrator 22.1.0, SVG Export Plug-In . SVG Version: 6.00 Build 0)  -->
<svg version="1.1" xmlns="http://www.w3.org/2000/svg" xmlns:xlink="http://www.w3.org/1999/xlink" x="0px" y="0px"
	 viewBox="0 0 216 271.3" enable-background="new 0 0 216 271.3" xml:space="preserve">
<g id="Layer_2">
</g>
<g id="logo">
	
		<image display="none" overflow="visible" width="1821" height="2918" xlink:href="2C06E82273A3A7B.jpg"  transform="matrix(0.24 0 0 0.24 51.3333 -59.3333)">
	</image>
	<g>
		<ellipse fill="#EEF5F1" cx="118.4" cy="99" rx="93.6" ry="92"/>
		<path fill="#0F2D40" d="M191.7,120.3c1.2,15.2-4.1,46.4-22.8,66.8c-15,16.4-20.7,17.4-37.6,32c-4.8,4.2-33,3.9-33,3.9
			s13.4,9.1,22.4,22.6c2.9,4.4,7.6,7.1,14.3,9.4c2.8,1,2.9,6.5-2.5,6.7c-6.1,0.2-9.3,1.8-12.8,1.8c-1.5,0-1.8-2.4-4.3-3
			c-2.5-0.6-5.6,0.6-6.5,0c-5-3.4-4.1-6.2-7.4-5.9c-7.8,0.5-8.2-2.7-12-5.1c-8.8-5.8-2.8-5.3-4.4-6.5c-12.9-9.7-2.8-9.7-6.9-14.3
			c-3.6-4-3.3-4.6-7.8-6.5c-16.6-6.9-17-12.7-21.9-15.1c-8.6-4.1-17.3-9.4-24.1-17.8c-5.8-7.1-7-20.7-10.1-31.3
			c-1.9-6.3-4.2-8.4-4.8-16.1c-0.4-5.2,3-5.2,0.4-9.3c-2.4-3.8-3.2-10-0.7-15.9c2.3-5.3,9-1.4,9-1.4c2.4-6.2,13.8,0,16.9,5.2
			c6.3,10.5,26.6,21.1,39.4,23.5c8.8,1.7,14.3,6.1,17.6,8.6c3,2.3,4.6,5.9,8,7.1c5.4,1.9,23.5-4.5,32.5-9.8c3-1.8,11.3,3.9,14.7,2.3
			c2.5-1.2,2.5-1.2,4.8-3.8c0.3-0.3,4.2,3,7-4.3c3.9-10.4,8.9-15.5,9.4-17.7c5.1-19.8-1.4-31.6-10.1-49.1c-1.8-3.6-20-8.7-35.3-4.4
			c-8.1,2.3-13.1,9.3-19.1,16.4c-2.8,3.2-4.6-5.1,3.9-19.4c3.1-5.2,6.6-10.5,13.7-12.9c6.1-2.1,16.9,1.4,22,2.3
			c6.7,1.2-0.2-4.6,11.1-14.3c5.8-5,14.4-4.5,22.6-2.2c11.5,3.2,18.4,6.6,20.2,11.7c2.9,8.1-0.4,8.9-0.4,8.9s-8.6-9.7-14.8-11
			c-5-1.1-6.8-0.7-12.4,1c-7.4,2.3-5.1,17.5-3.6,19.2C175.8,82.8,190.5,105.3,191.7,120.3"/>
		<g>
			<path fill="#99AAB0" d="M132.7,255.4c-3.4,5-7.3,3.9-11.1,3.2c-3.7-0.7-9-3.7-12.4-4.9c-4.6-1.7-8.9-2.6-9.3-5.8
				c-1.6-11.7-4.4-3-8.4-8.2c-3.9-5-5.1-10.5-9.2-13.8c-5-4.1-4.8-9.4-5-9.5c-10.8-6.3-6.6-12.8-8.6-16.1c-1.7-2.7-1.1-3.4-7.5-6.3
				c-4.5-2.1-3.3-8.8-5.8-12.6c-4.8-7.2-4.1-8.1-7.7-15.9c-3.1-6.7-10.1-7.8-13.8-13.2c-5.3-7.8-11.2-23-18.9-22.6
				c-3.9,0.2-3.2,3-4,3.7c-0.7,0.7-2.8-0.7-3.2,7c-0.6,11.3,5.6,10.3,10.5,40.9c1.4,8.8,12.6,18.5,29.2,26.5
				c5.6,2.7,3.1,7.9,24.1,15.5c0.4,0.1,5.6,2.3,7.1,8.2c0.6,2.1-4.8,4.2,6,12.6c2.2,1.7-8.2-1.1,10.5,12.2c2.8,2,4.6-1.9,7.8-0.1
				c2.5,1.4,3.5,7.4,10.5,5.9c2.5-0.5,2.1,1.7,6.2,2.8c0,0,5.7,0,8.6-1.5c3.9-2,5.7,3.3,8.9-4.2
				C137.9,256.8,134.9,252.1,132.7,255.4z"/>
			<path fill="#99AAB0" d="M154.4,191.1c-17.3,6.1-18,18.1-24.1,18.5c-17.6,1.2-9,6.5-19.6,4.5c-11.4-2.2-26.1-13.1-25.4-9.4
				c1.7,9.4,13.1,18.4,13.1,18.4c10.7-2.3,27.8,5.4,38.7-8.8c3.6-4.6,19.3-14.6,25.9-21.1c13.8-13.5,17.2-29.9,19.6-40.8
				C185.7,138.9,176.1,183.4,154.4,191.1z"/>
		</g>
		<g>
			<path fill="#EEF5F1" d="M132.7,255.4c-3.4,5-7.3,3.9-11.1,3.2c-3.7-0.7-9-3.7-12.4-4.9c-4.6-1.7-8.9-2.6-9.3-5.8
				c-1.6-11.7-4.4-3-8.4-8.2c-3.9-5-5.1-10.5-9.2-13.8c-5-4.1-4.8-9.4-5-9.5c-10.8-6.3-6.6-12.8-8.6-16.1c-1.7-2.7-1.1-3.4-7.5-6.3
				c-4.5-2.1-3.3-8.8-5.8-12.6c-4.8-7.2-4.1-8.1-7.7-15.9c-3.1-6.7-10.1-7.8-13.8-13.2c-5.3-7.8-11.2-23-18.9-22.6
				c-3.9,0.2-3.2,3-4,3.7c-0.7,0.7-2.8-0.7-3.2,7c-0.6,11.3,5.6,10.3,10.5,40.9c1.4,8.8,12.6,18.5,29.2,26.5
				c5.6,2.7,3.1,7.9,24.1,15.5c0.4,0.1,5.6,2.3,7.1,8.2c0.6,2.1-4.8,4.2,6,12.6c2.2,1.7-8.2-1.1,10.5,12.2c2.8,2,4.6-1.9,7.8-0.1
				c2.5,1.4,3.5,7.4,10.5,5.9c2.5-0.5,2.1,1.7,6.2,2.8c0,0,5.7,0,8.6-1.5c3.9-2,5.7,3.3,8.9-4.2
				C137.9,256.8,134.9,252.1,132.7,255.4z"/>
			<path fill="#EEF5F1" d="M154.4,191.1c-17.3,6.1-18,18.1-24.1,18.5c-17.6,1.2-9,6.5-19.6,4.5c-11.4-2.2-26.1-13.1-25.4-9.4
				c1.7,9.4,13.1,18.4,13.1,18.4c10.7-2.3,33.6-1,47-14.1c4.2-4.1,11.1-9.3,17.7-15.8c13.8-13.5,17.2-29.9,19.6-40.8
				C185.7,138.9,176.1,183.4,154.4,191.1z"/>
		</g>
		<g>
			<path fill="#0F2D40" d="M38.9,174.4c4.7,7.2,11,13.4,16.9,19.7c6.8,7.2,13.8,14.3,21.4,20.7c0.9,0.8,4.2-0.6,3.3-1.4
				c-7.3-6.2-14.1-12.9-20.6-19.9C53.7,187,47,180.6,42.2,173c-8.9-13.9-8.9-31.5-18.3-45.2c-0.6-0.9-4.1,0.2-3.3,1.4
				C30,142.8,29.9,160.5,38.9,174.4z"/>
			<path fill="#0F2D40" d="M49,179.3c7.1,6.8,16.9,10.8,21.2,20.2c0.6,1.2,4.1,0.1,3.6-1c-3.8-8.5-12-12.7-18.9-18.4
				c-9.3-7.7-13.2-19.6-17-30.7c-0.4-1.3-4-0.2-3.6,1C37.7,160.3,41.2,171.8,49,179.3z"/>
			<path fill="#0F2D40" d="M16.6,168.9c-0.6-1.5-4.6-10.8-3.5-9.3c10.8,14,3.4,21.4,32.9,45.5c1.3,1,6,6.2,4.5,5.2
				C24.2,192,23.9,186.5,16.6,168.9z"/>
			<path fill="#0F2D40" d="M83.4,209.4c6.3,0.8,12.2,3.3,18.5,3.9c5.2,0.5,10.2,0,15.3-1.1c-9.9,2.4-20.1,2.3-30.1,0
				c-0.9-0.2-4,1.2-2.9,1.5c13.4,3.1,27.2,3.4,39.7-2c17.1-7.4,31.7-21.5,30.5-20.6c-20.2,15.3-35.2,20.7-36.9,21.1
				c2.1-0.5,1.5-2.5-0.6-2c-6.7,1.4-13.2,1.4-19.9-0.2c-4.1-1-8.1-2.3-12.3-2.8C83.2,206.9,81,209.1,83.4,209.4z"/>
			<path fill="#0F2D40" d="M181.5,149.9c-3.5,14.7-5.1,27.3-27.7,45.1c-18.9,14.9-41.1,28.9-65.6,20.5c-0.8-0.3-3.9,1-2.9,1.4
				c21,7.3,43.3-0.5,60.6-13.1c15.6-11.4,27.5-19.8,32.2-39.2C178.3,163.8,181.7,149,181.5,149.9z"/>
			<path fill="#0F2D40" d="M140.8,210.4c-15.4,13.9-31.2,13.4-50.6,10.4c-0.3-0.1-0.8,0.1-1.3,0.3c0-0.1-0.1-0.3-0.4-0.4
				c-20.6-7.7-37.3-25.1-51-41.9c-13.1-16.2-11.1-38.5-23.4-54.9c-0.8-1-4.2,0.2-3.3,1.4c6.6,8.8,8.8,19.3,11.6,29.7
				c2.7,10.1,6.4,18.8,13.2,26.8c12.1,14.3,25.8,28.9,42.8,37.5c-3.7-1.4-7.5-2.7-11.1-4.5c-10.3-5.2-18.3-13.8-25.9-22.3
				c-7.9-8.7-15.6-17.6-19.6-28.9c-3.9-11.3-5-23.3-9.4-34.5c-0.6-1.4-4.1-0.4-3.6,1c4.4,11.2,5.5,23.2,9.4,34.5
				c3.7,10.8,10.9,19.5,18.4,27.9c6.9,7.7,14,15.6,22.7,21.3c9.9,6.5,22.7,7.6,31.7,15.5c1,0.9,4.4-0.5,3.3-1.5
				c-2.5-2.2-5.1-3.8-8-5.2c0.3,0,0.7-0.1,1-0.2c0,0.2,8-1.9,8.5-1.8c32.2,4.5,48-12.2,65.1-25.3C162.4,194,150.7,201.4,140.8,210.4
				z"/>
		</g>
		<path fill="#0F2D40" d="M98,252.9c0.4,0.4,1.4,0.3,1.4,0.8c0,0.4-2,0-2.2,0.3c-0.6,0.7-0.2,0.3-0.9-0.3c-0.4-0.4-1,0-1-0.5
			c0-0.3-0.3-0.9,0.2-0.8C96.7,252.5,97.3,252.3,98,252.9z"/>
		<g>
			<path fill="#0F2D40" d="M82.8,229.4c0.4,0.6,1,0.9,0.3,1.3c-0.7,0.5-1.2-0.1-1.6-0.6s-1.5-0.7-0.8-1.2
				C81.4,228.4,82.4,228.8,82.8,229.4z"/>
			<path fill="#0F2D40" d="M85.3,232.6c-0.3-1.1-1-1.9,0.3-2.2c1.3-0.3,1.8,0.8,2.1,1.9c0.3,1.1,1.8,2,0.5,2.3
				S85.6,233.7,85.3,232.6z"/>
			<path fill="#0F2D40" d="M116.7,261.1c-0.6-0.5-1.3-0.7-0.7-1.4c0.6-0.7,1.3-0.2,1.9,0.3s1.8,0.4,1.2,1.1
				C118.5,261.8,117.2,261.6,116.7,261.1z"/>
			<path fill="#0F2D40" d="M112.3,259.6c-0.3-0.3-0.7-0.4-0.4-0.8c0.4-0.4,0.8-0.1,1.1,0.2c0.3,0.3,1,0.2,0.7,0.6
				C113.4,260,112.7,259.9,112.3,259.6z"/>
			<path fill="#0F2D40" d="M109.1,255.6c-0.3-0.3-0.6-0.3-0.3-0.7c0.3-0.3,0.7-0.1,0.9,0.1s0.9,0.2,0.6,0.5
				C110,256,109.4,255.9,109.1,255.6z"/>
			<path fill="#0F2D40" d="M86,235.9c0.2,0.4,0.6,0.6,0.1,0.9c-0.4,0.3-0.8-0.1-1-0.5c-0.2-0.4-0.9-0.5-0.5-0.8
				C85.2,235.2,85.8,235.5,86,235.9z"/>
			<path fill="#0F2D40" d="M86.2,238.7c0.2,0.4,0.6,0.6,0.1,0.9c-0.4,0.3-0.8-0.1-1-0.5c-0.2-0.4-0.4-0.3,0-0.5
				C85.8,238.3,85.9,238.4,86.2,238.7z"/>
			<path fill="#0F2D40" d="M89.7,236.7c0.2,0.4,0.6,0.6,0.1,0.9c-0.4,0.3-0.8-0.1-1-0.5c-0.2-0.4-0.9-0.5-0.5-0.8
				C88.8,236,89.5,236.3,89.7,236.7z"/>
			<path fill="#0F2D40" d="M94,246.7c-0.2,1-1-1.3-2-1.5c-1-0.2-2,0.6-1.8-0.4c0.2-1-0.6-2,0.4-1.8C91.6,243.1,94.2,245.7,94,246.7z
				"/>
		</g>
		<g>
			<g>
				<path fill="#EEF5F1" d="M73.8,189.6c0,2.2-5.1,1.9-7.3,1.9s-3.9-4.8-3.9-7c0-2.2,2,5.9,4.2,5.9S73.8,189.6,73.8,189.6z"/>
				<path fill="#EEF5F1" d="M73.2,187.7c0,1.5-4.7,1-6.2,1s-2.7-3.3-2.7-4.9s1.4,4.1,2.9,4.1C68.7,187.9,73.2,187.7,73.2,187.7z"/>
			</g>
			<path fill="#EEF5F1" d="M12,126.4c0.3,0.5,1.3,0.7,1.1,1.2c-0.1,0.3-1.9-0.7-2.2-0.5c-0.8,0.4-0.3,0.3-0.7-0.6
				c-0.3-0.5-0.9-0.4-0.7-0.8c0.1-0.3,0.1-1,0.5-0.7C10.8,125.6,11.6,125.6,12,126.4z"/>
			<path fill="#EEF5F1" d="M46.1,157.1c0,0.7,1.5,1.8,0.2,1.8c-1.3,0-2.4-2.1-2.4-2.8s-1.7-0.8-0.4-0.8
				C44.9,155.3,46.1,156.4,46.1,157.1z"/>
			<path fill="#EEF5F1" d="M20.4,127.5c0.1,0.5,0.6,0.8-0.6,1s-1.5-0.3-1.6-0.8c-0.1-0.5-1.3-0.8-0.1-1
				C19.3,126.6,20.3,127,20.4,127.5z"/>
			<path fill="#EEF5F1" d="M52.3,158.2c0.1,0.5,0.4,0.9-0.2,1c-0.6,0.1-0.8-0.4-0.9-0.9c-0.1-0.5-0.8-0.9-0.2-1
				C51.6,157.2,52.2,157.7,52.3,158.2z"/>
			<path fill="#EEF5F1" d="M37.6,144c-0.2,1-1-1.3-2-1.5c-1-0.2-2,0.6-1.8-0.4c0.2-1-0.6-2,0.4-1.8C35.1,140.5,37.8,143,37.6,144z"
				/>
			<path fill="#EEF5F1" d="M16.1,122.3c0.1,0.7,0.9,1.2-0.8,1.5s-2.1-0.4-2.3-1.1c-0.1-0.7-2-1.2-0.2-1.5
				C14.5,120.9,15.9,121.6,16.1,122.3z"/>
		</g>
	</g>
</g>
</svg>
