<?xml version="1.0" encoding="utf-8"?>
<!-- Generator: Adobe Illustrator 22.1.0, SVG Export Plug-In . SVG Version: 6.00 Build 0)  -->
<svg version="1.1" xmlns="http://www.w3.org/2000/svg" xmlns:xlink="http://www.w3.org/1999/xlink" x="0px" y="0px"
	 viewBox="0 0 513 272" enable-background="new 0 0 513 272" xml:space="preserve">
<g id="Layer_3">
	<g>
		<path fill="#EEF5F1" d="M470.6,142.7h-4.2v-4h12.3v4h-4.2v22.1h-3.9V142.7z"/>
		<path fill="#EEF5F1" d="M485.8,153.8v11.1h-3.9v-26.1h3.9v11.1h4.8v-11.1h3.9v26.1h-3.9v-11.1H485.8z"/>
		<path fill="#EEF5F1" d="M498,164.8v-26.1h11.2v4H502v7.1h5.3v4H502v7.1h7.3v4H498z"/>
	</g>
	<g>
		<path fill="#EEF5F1" d="M200,176.6l13.1,33.6l13.7-36l13.1,36l13.9-33.6h8.2L239.5,230l-12.9-35.6l-13.5,35.6l-21.3-53.4H200z"/>
		<path fill="#EEF5F1" d="M282.4,196.3h21.7v-19.6h7.6v50.2h-7.6v-23.4h-21.7v23.4h-7.6v-50.2h7.6V196.3z"/>
		<path fill="#EEF5F1" d="M367.2,212.1h-26l-6.8,14.7h-9.9l30-64.4l28.9,64.4h-10L367.2,212.1z M363.5,203.5l-9-20.6l-9.4,20.6
			H363.5z"/>
		<path fill="#EEF5F1" d="M405.6,176.6v43.1h14.8v7.1H398v-50.2H405.6z"/>
		<path fill="#EEF5F1" d="M461.9,183.8h-20.1v12.1h19.5v7.1h-19.5v16.8h20.1v7.1h-27.7v-50.2h27.7V183.8z"/>
		<path fill="#EEF5F1" d="M506.9,184.1l-6.1,3.6c-1.1-2-2.2-3.3-3.3-3.9c-1.1-0.7-2.5-1-4.2-1c-2.1,0-3.8,0.6-5.2,1.8
			c-1.4,1.2-2.1,2.6-2.1,4.4c0,2.5,1.8,4.4,5.5,5.9l5,2c4.1,1.6,7.1,3.7,8.9,6c1.9,2.4,2.8,5.3,2.8,8.7c0,4.6-1.5,8.4-4.6,11.4
			c-3.1,3-6.9,4.6-11.5,4.6c-4.4,0-8-1.3-10.8-3.9c-2.8-2.6-4.5-6.2-5.2-10.9l7.7-1.7c0.3,2.9,1,5,1.8,6.1c1.6,2.2,3.8,3.3,6.8,3.3
			c2.4,0,4.3-0.8,5.9-2.4c1.6-1.6,2.3-3.6,2.3-6c0-1-0.1-1.9-0.4-2.7c-0.3-0.8-0.7-1.6-1.3-2.2c-0.6-0.7-1.3-1.3-2.2-1.9
			c-0.9-0.6-2-1.2-3.3-1.7l-4.8-2c-6.9-2.9-10.3-7.2-10.3-12.7c0-3.8,1.4-6.9,4.3-9.5c2.9-2.6,6.5-3.8,10.8-3.8
			C499.1,175.7,503.6,178.5,506.9,184.1z"/>
	</g>
	<g>
		<path fill="#EEF5F1" d="M248.7,133.7c0.1,8.4-2,15.5-6.5,21.4c-2.9,4-7.1,6.9-12.4,8.5c-2.9,0.9-6.2,1.3-10,1.3
			c-7.1,0-12.9-1.8-17.6-5.3c-3.9-2.9-7-6.8-9.2-11.7c-2.3-4.9-3.6-10.6-4-17l17.2-1.2c0.8,7,2.6,12,5.5,15.2
			c2.2,2.4,4.7,3.5,7.5,3.4c4-0.1,7.1-2.1,9.5-5.8c1.2-1.9,1.8-4.5,1.8-7.9c0-5-2.3-9.9-6.8-14.8c-3.6-3.4-8.9-8.5-16.1-15.2
			c-6-5.8-10.2-11-12.7-15.6c-2.7-5.2-4-10.8-4-16.8c0-10.9,3.7-19.2,11-24.8c4.5-3.4,10.1-5.1,16.8-5.1c6.4,0,12,1.4,16.5,4.3
			c3.6,2.2,6.5,5.4,8.7,9.4c2.2,4,3.5,8.6,4,13.9l-17.3,3.2c-0.5-4.9-1.9-8.7-4.2-11.5c-1.7-2-4-3-7.2-3c-3.3,0-5.8,1.5-7.6,4.4
			c-1.4,2.4-2.1,5.3-2.1,8.8c0,5.5,2.4,11.1,7.1,16.7c1.8,2.2,4.5,4.7,8,7.7c4.2,3.5,7,6,8.3,7.4c4.5,4.5,7.9,8.9,10.3,13.2
			c1.1,2,2.1,3.9,2.8,5.6C247.7,126.5,248.6,130.4,248.7,133.7z"/>
		<path fill="#EEF5F1" d="M282.3,136l-4.4,27.5h-18.8l20.4-119.8h24.9l20.1,119.8h-19l-4.2-27.5H282.3z M291.8,71.2l-6.7,47.2h13.4
			L291.8,71.2z"/>
		<path fill="#EEF5F1" d="M342.2,163.6L320.8,43.7h18.9l15,93.4L370,43.7h19l-21.8,119.8H342.2z"/>
		<path fill="#EEF5F1" d="M404,163.6V43.6h51.5v18.2h-33.4v32.7h24.4v18.2h-24.4v32.7h33.4v18.2H404z"/>
	</g>
</g>
<g id="logo">
	
		<image display="none" overflow="visible" width="1821" height="2918" xlink:href="1CB7AB82A774F0F1.jpg"  transform="matrix(0.24 0 0 0.24 52 -60)">
	</image>
	<g>
		<ellipse fill="#EEF5F1" cx="119.1" cy="97.3" rx="93.6" ry="92"/>
		<path fill="#0F2D40" d="M192.4,118.6c1.2,15.2-4.1,46.4-22.8,66.8c-15,16.4-20.7,17.4-37.6,32c-4.8,4.2-33,3.9-33,3.9
			s13.4,9.1,22.4,22.6c2.9,4.4,7.6,7.1,14.3,9.4c2.8,1,2.9,6.5-2.5,6.7c-6.1,0.2-9.3,1.8-12.8,1.8c-1.5,0-1.8-2.4-4.3-3
			c-2.5-0.6-5.6,0.6-6.5,0c-5-3.4-4.1-6.2-7.4-5.9c-7.8,0.5-8.2-2.7-12-5.1c-8.8-5.8-2.8-5.3-4.4-6.5c-12.9-9.7-2.8-9.7-6.9-14.3
			c-3.6-4-3.3-4.6-7.8-6.5c-16.6-6.9-17-12.7-21.9-15.1c-8.6-4.1-17.3-9.4-24.1-17.8c-5.8-7.1-7-20.7-10.1-31.3
			c-1.9-6.3-4.2-8.4-4.8-16.1c-0.4-5.2,3-5.2,0.4-9.3c-2.4-3.8-3.2-10-0.7-15.9c2.3-5.3,9-1.4,9-1.4c2.4-6.2,13.8,0,16.9,5.2
			c6.3,10.5,26.6,21.1,39.4,23.5c8.8,1.7,14.3,6.1,17.6,8.6c3,2.3,4.6,5.9,8,7.1c5.4,1.9,23.5-4.5,32.5-9.8c3-1.8,11.3,3.9,14.7,2.3
			c2.5-1.2,2.5-1.2,4.8-3.8c0.3-0.3,4.2,3,7-4.3c3.9-10.4,8.9-15.5,9.4-17.7c5.1-19.8-1.4-31.6-10.1-49.1c-1.8-3.6-20-8.7-35.3-4.4
			c-8.1,2.3-13.1,9.3-19.1,16.4c-2.8,3.2-4.6-5.1,3.9-19.4c3.1-5.2,6.6-10.5,13.7-12.9c6.1-2.1,16.9,1.4,22,2.3
			c6.7,1.2-0.2-4.6,11.1-14.3c5.8-5,14.4-4.5,22.6-2.2c11.5,3.2,18.4,6.6,20.2,11.7c2.9,8.1-0.4,8.9-0.4,8.9s-8.6-9.7-14.8-11
			c-5-1.1-6.8-0.7-12.4,1c-7.4,2.3-5.1,17.5-3.6,19.2C176.5,81.1,191.2,103.6,192.4,118.6"/>
		<g>
			<path fill="#99AAB0" d="M133.4,253.7c-3.4,5-7.3,3.9-11.1,3.2c-3.7-0.7-9-3.7-12.4-4.9c-4.6-1.7-8.9-2.6-9.3-5.8
				c-1.6-11.7-4.4-3-8.4-8.2c-3.9-5-5.1-10.5-9.2-13.8c-5-4.1-4.8-9.4-5-9.5c-10.8-6.3-6.6-12.8-8.6-16.1c-1.7-2.7-1.1-3.4-7.5-6.3
				c-4.5-2.1-3.3-8.8-5.8-12.6c-4.8-7.2-4.1-8.1-7.7-15.9c-3.1-6.7-10.1-7.8-13.8-13.2c-5.3-7.8-11.2-23-18.9-22.6
				c-3.9,0.2-3.2,3-4,3.7c-0.7,0.7-2.8-0.7-3.2,7c-0.6,11.3,5.6,10.3,10.5,40.9C20.2,188.4,31.4,198,48,206
				c5.6,2.7,3.1,7.9,24.1,15.5c0.4,0.1,5.6,2.3,7.1,8.2c0.6,2.1-4.8,4.2,6,12.6c2.2,1.7-8.2-1.1,10.5,12.2c2.8,2,4.6-1.9,7.8-0.1
				c2.5,1.4,3.5,7.4,10.5,5.9c2.5-0.5,2.1,1.7,6.2,2.8c0,0,5.7,0,8.6-1.5c3.9-2,5.7,3.3,8.9-4.2
				C138.5,255.2,135.5,250.5,133.4,253.7z"/>
			<path fill="#99AAB0" d="M155.1,189.4c-17.3,6.1-18,18.1-24.1,18.5c-17.6,1.2-9,6.5-19.6,4.5c-11.4-2.2-26.1-13.1-25.4-9.4
				c1.7,9.4,13.1,18.4,13.1,18.4c10.7-2.3,27.8,5.4,38.7-8.8c3.6-4.6,19.3-14.6,25.9-21.1c13.8-13.5,17.2-29.9,19.6-40.8
				C186.3,137.2,176.8,181.7,155.1,189.4z"/>
		</g>
		<g>
			<path fill="#EEF5F1" d="M133.4,253.7c-3.4,5-7.3,3.9-11.1,3.2c-3.7-0.7-9-3.7-12.4-4.9c-4.6-1.7-8.9-2.6-9.3-5.8
				c-1.6-11.7-4.4-3-8.4-8.2c-3.9-5-5.1-10.5-9.2-13.8c-5-4.1-4.8-9.4-5-9.5c-10.8-6.3-6.6-12.8-8.6-16.1c-1.7-2.7-1.1-3.4-7.5-6.3
				c-4.5-2.1-3.3-8.8-5.8-12.6c-4.8-7.2-4.1-8.1-7.7-15.9c-3.1-6.7-10.1-7.8-13.8-13.2c-5.3-7.8-11.2-23-18.9-22.6
				c-3.9,0.2-3.2,3-4,3.7c-0.7,0.7-2.8-0.7-3.2,7c-0.6,11.3,5.6,10.3,10.5,40.9C20.2,188.4,31.4,198,48,206
				c5.6,2.7,3.1,7.9,24.1,15.5c0.4,0.1,5.6,2.3,7.1,8.2c0.6,2.1-4.8,4.2,6,12.6c2.2,1.7-8.2-1.1,10.5,12.2c2.8,2,4.6-1.9,7.8-0.1
				c2.5,1.4,3.5,7.4,10.5,5.9c2.5-0.5,2.1,1.7,6.2,2.8c0,0,5.7,0,8.6-1.5c3.9-2,5.7,3.3,8.9-4.2
				C138.5,255.2,135.5,250.5,133.4,253.7z"/>
			<path fill="#EEF5F1" d="M155.1,189.4c-17.3,6.1-18,18.1-24.1,18.5c-17.6,1.2-9,6.5-19.6,4.5c-11.4-2.2-26.1-13.1-25.4-9.4
				c1.7,9.4,13.1,18.4,13.1,18.4c10.7-2.3,33.6-1,47-14.1c4.2-4.1,11.1-9.3,17.7-15.8c13.8-13.5,17.2-29.9,19.6-40.8
				C186.3,137.2,176.8,181.7,155.1,189.4z"/>
		</g>
		<g>
			<path fill="#0F2D40" d="M39.5,172.7c4.7,7.2,11,13.4,16.9,19.7c6.8,7.2,13.8,14.3,21.4,20.7c0.9,0.8,4.2-0.6,3.3-1.4
				c-7.3-6.2-14.1-12.9-20.6-19.9c-6.1-6.5-12.9-12.9-17.7-20.5c-8.9-13.9-8.9-31.5-18.3-45.2c-0.6-0.9-4.1,0.2-3.3,1.4
				C30.6,141.2,30.6,158.8,39.5,172.7z"/>
			<path fill="#0F2D40" d="M49.7,177.6c7.1,6.8,16.9,10.8,21.2,20.2c0.6,1.2,4.1,0.1,3.6-1c-3.8-8.5-12-12.7-18.9-18.4
				c-9.3-7.7-13.2-19.6-17-30.7c-0.4-1.3-4-0.2-3.6,1C38.3,158.6,41.9,170.1,49.7,177.6z"/>
			<path fill="#0F2D40" d="M17.3,167.3c-0.6-1.5-4.6-10.8-3.5-9.3c10.8,14,3.4,21.4,32.9,45.5c1.3,1,6,6.2,4.5,5.2
				C24.9,190.4,24.6,184.8,17.3,167.3z"/>
			<path fill="#0F2D40" d="M84,207.7c6.3,0.8,12.2,3.3,18.5,3.9c5.2,0.5,10.2,0,15.3-1.1c-9.9,2.4-20.1,2.3-30.1,0
				c-0.9-0.2-4,1.2-2.9,1.5c13.4,3.1,27.2,3.4,39.7-2c17.1-7.4,31.7-21.5,30.5-20.6c-20.2,15.3-35.2,20.7-36.9,21.1
				c2.1-0.5,1.5-2.5-0.6-2c-6.7,1.4-13.2,1.4-19.9-0.2c-4.1-1-8.1-2.3-12.3-2.8C83.8,205.3,81.7,207.4,84,207.7z"/>
			<path fill="#0F2D40" d="M182.2,148.2c-3.5,14.7-5.1,27.3-27.7,45.1c-18.9,14.9-41.1,28.9-65.6,20.5c-0.8-0.3-3.9,1-2.9,1.4
				c21,7.3,43.3-0.5,60.6-13.1c15.6-11.4,27.5-19.8,32.2-39.2C179,162.1,182.4,147.4,182.2,148.2z"/>
			<path fill="#0F2D40" d="M141.4,208.8c-15.4,13.9-31.2,13.4-50.6,10.4c-0.3-0.1-0.8,0.1-1.3,0.3c0-0.1-0.1-0.3-0.4-0.4
				c-20.6-7.7-37.3-25.1-51-41.9C25,160.9,27,138.6,14.7,122.2c-0.8-1-4.2,0.2-3.3,1.4c6.6,8.8,8.8,19.3,11.6,29.7
				c2.7,10.1,6.4,18.8,13.2,26.8C48.3,194.4,62,209,78.9,217.6c-3.7-1.4-7.5-2.7-11.1-4.5c-10.3-5.2-18.3-13.8-25.9-22.3
				c-7.9-8.7-15.6-17.6-19.6-28.9c-3.9-11.3-5-23.3-9.4-34.5c-0.6-1.4-4.1-0.4-3.6,1c4.4,11.2,5.5,23.2,9.4,34.5
				c3.7,10.8,10.9,19.5,18.4,27.9c6.9,7.7,14,15.6,22.7,21.3c9.9,6.5,22.7,7.6,31.7,15.5c1,0.9,4.4-0.5,3.3-1.5
				c-2.5-2.2-5.1-3.8-8-5.2c0.3,0,0.7-0.1,1-0.2c0,0.2,8-1.9,8.5-1.8c32.2,4.5,48-12.2,65.1-25.3
				C163.1,192.3,151.4,199.8,141.4,208.8z"/>
		</g>
		<path fill="#0F2D40" d="M98.7,251.2c0.4,0.4,1.4,0.3,1.4,0.8c0,0.4-2,0-2.2,0.3c-0.6,0.7-0.2,0.3-0.9-0.3c-0.4-0.4-1,0-1-0.5
			c0-0.3-0.3-0.9,0.2-0.8C97.3,250.8,98,250.6,98.7,251.2z"/>
		<g>
			<path fill="#0F2D40" d="M83.5,227.7c0.4,0.6,1,0.9,0.3,1.3c-0.7,0.5-1.2-0.1-1.6-0.6c-0.4-0.6-1.5-0.7-0.8-1.2
				C82.1,226.7,83.1,227.1,83.5,227.7z"/>
			<path fill="#0F2D40" d="M86,230.9c-0.3-1.1-1-1.9,0.3-2.2s1.8,0.8,2.1,1.9c0.3,1.1,1.8,2,0.5,2.3C87.6,233.3,86.2,232,86,230.9z"
				/>
			<path fill="#0F2D40" d="M117.3,259.4c-0.6-0.5-1.3-0.7-0.7-1.4c0.6-0.7,1.3-0.2,1.9,0.3c0.6,0.5,1.8,0.4,1.2,1.1
				C119.1,260.1,117.9,259.9,117.3,259.4z"/>
			<path fill="#0F2D40" d="M113,258c-0.3-0.3-0.7-0.4-0.4-0.8c0.4-0.4,0.8-0.1,1.1,0.2c0.3,0.3,1,0.2,0.7,0.6
				C114,258.4,113.3,258.3,113,258z"/>
			<path fill="#0F2D40" d="M109.8,254c-0.3-0.3-0.6-0.3-0.3-0.7c0.3-0.3,0.7-0.1,0.9,0.1c0.3,0.3,0.9,0.2,0.6,0.5
				C110.7,254.3,110.1,254.2,109.8,254z"/>
			<path fill="#0F2D40" d="M86.7,234.2c0.2,0.4,0.6,0.6,0.1,0.9c-0.4,0.3-0.8-0.1-1-0.5s-0.9-0.5-0.5-0.8
				C85.8,233.5,86.5,233.8,86.7,234.2z"/>
			<path fill="#0F2D40" d="M86.8,237.1c0.2,0.4,0.6,0.6,0.1,0.9c-0.4,0.3-0.8-0.1-1-0.5s-0.4-0.3,0-0.5
				C86.4,236.6,86.6,236.7,86.8,237.1z"/>
			<path fill="#0F2D40" d="M90.4,235c0.2,0.4,0.6,0.6,0.1,0.9c-0.4,0.3-0.8-0.1-1-0.5s-0.9-0.5-0.5-0.8
				C89.5,234.4,90.2,234.7,90.4,235z"/>
			<path fill="#0F2D40" d="M94.7,245c-0.2,1-1-1.3-2-1.5c-1-0.2-2,0.6-1.8-0.4c0.2-1-0.6-2,0.4-1.8C92.2,241.5,94.9,244,94.7,245z"
				/>
		</g>
		<g>
			<g>
				<path fill="#EEF5F1" d="M74.5,188c0,2.2-5.1,1.9-7.3,1.9s-3.9-4.8-3.9-7s2,5.9,4.2,5.9S74.5,188,74.5,188z"/>
				<path fill="#EEF5F1" d="M73.9,186c0,1.5-4.7,1-6.2,1c-1.5,0-2.7-3.3-2.7-4.9s1.4,4.1,2.9,4.1C69.4,186.2,73.9,186,73.9,186z"/>
			</g>
			<path fill="#EEF5F1" d="M12.7,124.8c0.3,0.5,1.3,0.7,1.1,1.2c-0.1,0.3-1.9-0.7-2.2-0.5c-0.8,0.4-0.3,0.3-0.7-0.6
				c-0.3-0.5-0.9-0.4-0.7-0.8c0.1-0.3,0.1-1,0.5-0.7C11.5,123.9,12.2,123.9,12.7,124.8z"/>
			<path fill="#EEF5F1" d="M46.8,155.5c0,0.7,1.5,1.8,0.2,1.8c-1.3,0-2.4-2.1-2.4-2.8c0-0.7-1.7-0.8-0.4-0.8S46.8,154.8,46.8,155.5z
				"/>
			<path fill="#EEF5F1" d="M21.1,125.9c0.1,0.5,0.6,0.8-0.6,1c-1.2,0.2-1.5-0.3-1.6-0.8c-0.1-0.5-1.3-0.8-0.1-1
				C20,124.9,21,125.4,21.1,125.9z"/>
			<path fill="#EEF5F1" d="M52.9,156.6c0.1,0.5,0.4,0.9-0.2,1c-0.6,0.1-0.8-0.4-0.9-0.9s-0.8-0.9-0.2-1
				C52.3,155.5,52.8,156.1,52.9,156.6z"/>
			<path fill="#EEF5F1" d="M38.2,142.4c-0.2,1-1-1.3-2-1.5c-1-0.2-2,0.6-1.8-0.4s-0.6-2,0.4-1.8C35.8,138.9,38.5,141.4,38.2,142.4z"
				/>
			<path fill="#EEF5F1" d="M16.7,120.6c0.1,0.7,0.9,1.2-0.8,1.5c-1.7,0.3-2.1-0.4-2.3-1.1c-0.1-0.7-2-1.2-0.2-1.5
				S16.6,119.9,16.7,120.6z"/>
		</g>
	</g>
</g>
</svg>
